<svg width="1020" height="1140" viewBox="0 0 1020 1140" fill="none" xmlns="http://www.w3.org/2000/svg">
<path d="M789.998 919.25C722.578 1003.21 622.078 1089.09 523.778 1134.53C515.508 1138.35 511.938 1141.45 502.748 1137.84C492.028 1133.63 477.038 1124.79 466.568 1119.02C435.038 1101.62 402.298 1080.68 373.498 1059.09C160.808 899.64 51.7482 646.68 14.5382 387.05C2.51819 303.17 -2.81181 216.45 1.45819 131.22C1.71819 126.06 0.35819 111.45 3.66819 107.92C4.27819 107.27 16.7582 99.6003 18.7082 98.4703C95.4882 53.9903 200.808 31.2103 288.058 17.8203C422.238 -2.77974 548.688 -6.05974 683.798 10.8103C783.518 23.2603 912.308 47.6003 999.748 97.8603C1001.96 99.1303 1014.56 107.14 1015.44 108.17C1017.62 110.73 1018.25 121.09 1018.47 125.14C1019.78 149.8 1019.79 176.48 1019.48 201.23C1016.31 450.93 947.918 722.6 790.008 919.26L789.998 919.25ZM751.038 921.32C923.098 719.86 991.428 436.62 990.368 175.22C990.308 161.53 991.938 143.15 990.428 130.16C990.188 128.1 989.838 126.75 988.428 125.16C986.718 123.22 967.818 113.32 964.088 111.5C913.588 86.8903 856.988 72.1703 802.178 60.4103C683.008 34.8403 551.668 21.7103 429.918 30.6903C311.258 39.4403 162.408 59.6903 55.0482 111.82C47.0882 115.68 39.5682 120.28 31.9082 124.68C27.6582 129.08 29.7882 137.35 29.4482 143.22C24.7282 224.99 33.2082 307.66 44.3182 388.27C78.0282 633.03 184.528 877.69 383.938 1030.65C418.328 1057.03 462.168 1086.22 501.388 1105.2C503.578 1106.26 507.688 1108.62 509.928 1108.57C511.288 1108.54 522.088 1103.19 524.298 1102.06C607.548 1059.6 690.778 991.86 751.038 921.31V921.32Z" fill="black"/>
<path d="M682.999 837.26C640.329 888.41 588.009 931.78 529.729 964.49C521.319 969.21 514.699 977.49 504.179 973.41C497.479 970.81 482.419 961.27 475.499 957.1C254.909 824.09 168.059 555.56 156.379 309.22C158.769 281.03 153.199 247.77 156.399 220.16C156.659 217.93 157.129 216.18 158.919 214.68C172.979 205.04 187.269 198.34 202.779 191.54C261.169 165.92 325.709 153.58 389.049 145.81C496.869 132.57 610.489 136.9 716.659 159.95C767.409 170.97 818.449 186.84 861.879 215.73C863.339 217.64 864.299 231.52 864.469 235.14C866.859 286.01 862.059 338.02 856.419 388.17C838.329 548.87 787.269 712.28 683.009 837.26H682.999ZM172.919 228.68H396.919C399.059 228.68 399.059 237.68 396.919 237.68H171.419C170.959 239.51 170.519 241.21 170.369 243.13C167.159 283.95 172.169 337.38 176.429 378.16C199.989 603.74 289.989 833.98 494.949 950.64C501.099 954.14 505.229 960.81 513.639 957.4C518.809 955.31 529.379 948.66 534.719 945.47C712.069 839.83 799.979 644 834.159 446.91C836.539 433.17 837.039 418.93 839.649 405.4C842.059 392.87 841.559 387.62 842.429 375.18C844.209 349.49 848.589 323.94 849.459 298.21C849.969 283.12 851.309 256.2 849.459 242.12C848.999 238.57 847.609 237.47 843.969 237.61L618.439 237.15C614.009 235.17 614.869 228.74 619.859 228.61L846.759 228.51C852.779 226.59 841.139 219.33 838.729 217.86C794.169 190.83 720.299 173.93 668.839 165.75C538.349 144.98 389.659 148.39 262.199 184.96C240.269 191.25 190.649 208.63 173.909 222.67C172.339 223.99 169.569 227.71 172.919 228.68Z" fill="black"/>
<path d="M738.039 878.06C744.309 883.57 750.079 889.78 756.929 894.66L758.449 897.18L740.389 918.17L736.159 918.47L692.409 906.69L694.499 910.09L723.469 934.35C724.249 937.96 712.739 948.39 709.919 951.52L648.329 899.05C647.669 894.94 656.629 888.06 659.439 885.21C661.719 882.89 665.769 876 668.939 875.67L713.409 887.68C714.489 886.65 710.269 882.98 709.429 882.17C705.889 878.78 684.209 862 683.789 859.74C683.369 857.48 685.169 856.26 686.479 854.49C688.809 851.34 696.069 842.11 699.929 844.6C711.839 856.67 725.339 866.92 738.039 878.08V878.06Z" fill="black"/>
<path d="M911.159 595.47C911.029 595.72 909.589 595.72 909.109 596.89L902.899 617.66L900.159 619.92L854.419 625.69L855.659 627.94L893.379 639.72C894.129 640.57 889.169 659.9 885.769 660.48L809.529 635.06C808.149 631.15 811.009 628.67 811.919 625.7C813.219 621.43 815.579 609.21 819.429 607.22L865.409 600.69C865.649 598.04 865.459 599.07 863.909 598.72C851.219 595.88 839.219 590.4 826.509 587.61C825.049 585.9 831.559 567.22 833.029 566.79L909.699 590.91C911.619 591.44 911.949 593.89 911.139 595.5L911.159 595.47Z" fill="black"/>
<path d="M162.799 488.3C177.669 506.21 176.929 533.54 155.309 546.06C126.439 562.78 85.7686 552.01 80.4686 516.12C74.2886 474.22 137.519 457.85 162.799 488.3ZM125.159 496.91C117.459 498.12 104.959 503.31 104.359 512.13C102.909 533.66 129.109 532.31 142.329 524.08C148.779 520.06 149.479 514.46 148.359 507.23C146.759 496.91 133.479 495.59 125.159 496.9V496.91Z" fill="black"/>
<path d="M135.779 432.06C108.889 451.39 63.0185 440.02 58.4985 404.1C51.5385 348.8 145.129 345.42 149.449 395.15C150.939 412.28 149.839 421.96 135.779 432.07V432.06ZM85.7685 411.33C96.4285 423.08 136.169 415.18 126.919 394.67C121.169 381.92 102.799 383.24 91.8885 387.65C90.3085 388.29 85.2785 391.02 84.3685 392.13C80.4385 396.98 81.7385 406.89 85.7585 411.32L85.7685 411.33Z" fill="black"/>
<path d="M143.698 690.97L220.918 660.63C223.328 660.86 229.538 673.74 230.898 676.69C234.168 683.78 240.598 699.65 240.348 707.01C239.818 722.29 220.708 731.67 207.888 723.8C202.828 735.45 194.578 743.36 181.068 742.57C157.618 741.2 151.448 711.47 143.078 694.45L143.698 690.96V690.97ZM214.238 688.86C213.378 688.35 201.868 692.19 201.488 692.75C199.448 695.72 205.938 705.6 213.468 703.23C219.868 701.21 217.348 690.69 214.238 688.86ZM182.918 699.69C177.448 704.68 165.738 702.46 172.388 713.2C180.558 726.38 193.848 710.2 182.918 699.69Z" fill="black"/>
<path d="M845.038 686.06C861.868 700.48 862.528 724.55 850.758 742.53C830.048 774.17 776.168 755.08 773.378 720.21C769.928 677.11 813.198 658.79 845.038 686.06ZM831.868 730.12C848.618 715.31 825.588 699.18 810.808 697.72C803.908 697.03 793.798 705.74 793.548 712.13C792.978 726.46 820.678 740.02 831.878 730.12H831.868Z" fill="black"/>
<path d="M736.858 782.09C752.878 766.56 775.998 772.99 791.428 786.16C811.168 803.02 806.468 824.04 794.978 843.74C793.488 846.3 785.588 860.5 784.408 861.16C782.578 862.18 780.308 861.92 778.448 861.12C772.428 857.19 766.198 853.14 759.938 849.64C753.908 846.27 714.048 825.28 712.868 822.63C711.748 820.12 715.918 812.78 717.368 810.13C722.268 801.2 729.618 789.08 736.848 782.08L736.858 782.09ZM779.278 831.52C782.028 829.79 782.878 818.73 782.198 815.4C780.118 805.26 763.688 796.49 754.018 797.77C748.678 798.48 737.868 808.15 742.418 813.19C753.158 816.92 764.358 827.36 774.478 831.11C775.808 831.6 778.108 832.26 779.278 831.51V831.52Z" fill="black"/>
<path d="M257.998 817.26C250.768 824.88 243.118 832.11 235.888 839.65C233.958 841.67 223.908 853.81 221.908 853.65C218.848 849.8 217.128 845.18 214.728 840.93C213.628 838.99 209.958 836.01 209.778 833.17C209.518 829.18 219.348 826.45 218.218 819.45C218.048 818.38 208.618 802.18 207.748 801.62C203.488 798.85 195.888 803.83 192.878 801.81C190.878 800.47 180.958 785.11 181.418 783.24L269.708 766.84C271.228 767.29 282.688 785.28 283.238 787.46C284.568 792.72 276.738 796.64 273.398 800.17C268.168 805.7 263.248 811.75 258.008 817.28L257.998 817.26ZM249.408 790.68C246.598 792.25 226.418 795.18 226.438 797.17C229.408 798.97 231.378 807.47 234.748 806.53C236.988 805.91 250.978 792.18 249.418 790.67L249.408 790.68Z" fill="black"/>
<path d="M968.168 295.91C970.398 298.09 967.318 313.37 966.398 317.18C966.108 318.36 967.138 318.97 964.908 318.69L889.158 288.43C882.358 284.16 889.518 269.23 888.608 262.37L892.398 259.16L973.438 238.11C975.908 239.87 973.628 257.78 972.158 260.92C970.118 265.31 962.598 263.78 958.868 266.63C958.928 273.75 955.718 281.51 955.458 288.33C955.238 293.96 965.638 293.44 968.168 295.91ZM938.358 271.73L928.178 272.94L917.438 276.18C917.468 277.57 937.198 284.89 938.418 283.68L938.368 271.74L938.358 271.73Z" fill="black"/>
<path d="M555.919 123.68C551.059 122.63 545.509 104.26 542.759 103.63C534.309 101.71 541.309 118.87 536.749 121.76C534.519 123.17 515.869 124.33 514.849 119.77L515.229 49.0705C516.669 45.5005 527.979 46.5305 531.959 46.6305C540.849 46.8605 555.169 47.1405 562.939 50.6505C576.829 56.9205 579.359 69.5905 577.149 83.9205C575.819 92.5805 570.069 95.0805 565.609 100.98C569.069 108.52 575.469 115.21 576.409 123.68C570.479 122.82 561.369 124.86 555.909 123.68H555.919ZM553.129 69.9605C550.969 67.3105 542.129 65.1905 539.359 67.1205C537.989 68.0705 537.929 81.4105 538.859 82.7505C540.119 84.5605 548.819 83.9405 550.969 82.7405C554.929 80.5205 555.799 73.2505 553.129 69.9705V69.9605Z" fill="black"/>
<path d="M609.769 118.32C583.889 90.8801 605.429 40.1701 646.209 51.3801C650.649 52.6001 658.039 56.1001 661.439 59.1501C680.169 75.9701 679.388 109.53 658.298 124.06C643.728 134.1 621.749 131.03 609.769 118.32ZM636.079 71.0601C620.419 71.4101 617.849 100.71 630.149 107.44C638.149 111.82 647.168 106.88 649.858 98.6201C650.828 95.6401 650.949 82.3901 649.879 79.7201C647.809 74.5701 641.649 70.9401 636.079 71.0601Z" fill="black"/>
<path d="M234.859 93.23C243.079 101.18 246.108 113.53 241.628 124.39C240.658 126.75 234.729 133.04 234.729 134.18C234.729 135.74 249.388 149.12 250.428 153.16C250.048 154.93 231.219 160.03 228.979 159.71C223.489 158.94 217.598 142.67 211.058 144.76C205.848 146.43 213.339 161.39 211.289 164.55L191.378 170.25C186.248 161.18 186.199 150.4 184.179 140.41C183.149 135.33 182.119 130.57 181.169 125.42C180.359 120.99 174.678 98.92 176.518 96.77C194.548 93.89 219.229 78.11 234.859 93.22V93.23ZM208.148 107.92C195.998 110.17 204.718 116.47 204.878 124.71C210.018 126.23 218.719 123.86 219.479 117.21C220.439 108.71 215.878 106.49 208.148 107.93V107.92Z" fill="black"/>
<path d="M726.168 63.9403C743.318 61.9003 763.708 74.5103 768.118 91.4703C776.018 121.79 757.768 150.93 724.358 143.23C684.318 134 684.858 68.8503 726.158 63.9403H726.168ZM728.118 85.8803C723.888 87.1303 718.108 96.8803 717.478 101.23C715.678 113.73 726.728 129.98 739.348 121.1C754.408 110.5 746.648 80.4003 728.118 85.8803Z" fill="black"/>
<path d="M153.168 113.911C153.948 114.641 154.548 116.55 153.938 117.62C149.918 120.14 146.318 133.32 141.918 133.31C140.618 133.31 137.778 131.27 135.678 130.92C118.238 127.95 113.958 142.75 116.478 157.12C118.488 168.57 135.648 173.11 141.508 164.22C142.678 162.44 140.858 154.121 140.148 151.451C139.528 149.101 136.088 147.27 138.318 144.3C138.868 143.57 154.918 138.591 155.808 138.801C157.458 139.191 158.848 143.651 159.298 145.291C160.678 150.231 164.238 168.56 162.708 172.46C161.518 175.51 147.928 184.891 144.638 186.421C122.918 196.551 100.108 188.491 93.6584 164.921C85.9184 136.631 105.978 108.34 135.738 108.75C139.118 108.8 150.808 111.731 153.148 113.911H153.168Z" fill="black"/>
<path d="M307.258 63.84C309.748 71.47 315.068 78.09 318.778 84.81C326.058 97.99 332.318 111.89 339.398 125.19C341.168 128.51 344.558 130.04 343.418 134.67C338.048 133.5 326.448 138.76 322.128 137.52C317.348 136.15 319.828 126 311.038 126.75C308.508 126.96 294.488 129.58 292.648 130.34C287.878 132.3 290.828 140.85 287.678 143.72C285.458 145 269.188 148.96 268.058 148.59C264.698 147.5 268.578 137.9 269.138 134.89C272.528 116.66 276.338 98.18 280.648 80.4C281.558 76.63 282.648 68.13 286.138 66.89C288.338 66.11 306.078 63.1 307.258 63.83V63.84ZM299.398 93.68C299.278 93.57 297.288 93.31 297.418 94.18L295.428 109.67C300.048 108.81 307.058 110.18 304.988 103.63C304.818 103.09 299.838 94.05 299.408 93.68H299.398Z" fill="black"/>
<path d="M872.188 489.89C874.838 491.83 871.358 495.48 870.848 497.62C870.318 499.88 866.798 515 867.438 515.66L877.398 517.68C880.258 513.41 881.158 495.06 885.928 494.64C887.768 494.48 901.058 497.93 901.978 499.68C903.528 502.63 896.458 517.8 897.498 521.03C897.978 522.52 904.638 524.45 906.128 524.45C912.048 524.45 913.478 505.4 915.348 501.09C917.148 499.77 931.878 502.9 933.528 505.13C935.788 508.2 931.388 517.26 930.678 520.42C929.718 524.68 925.198 550.04 923.458 551.21L842.888 533.7C841.888 532.17 842.358 529.21 842.668 527.4C843.538 522.17 847.018 515.5 848.198 510.93C849.148 507.24 852.458 486.1 854.888 485.84C858.158 488.3 870.238 488.43 872.198 489.87L872.188 489.89Z" fill="black"/>
<path d="M863.838 175.25C861.838 173.55 858.098 170.81 858.368 168.22C858.498 166.98 867.868 153.71 868.918 153.72C873.288 156.83 877.508 161.95 882.198 164.39C886.138 166.43 902.898 170.97 895.978 162.61C889.058 154.25 869.678 149.54 867.478 135.11C864.558 115.93 879.838 105.13 897.848 107.73C903.728 108.58 926.608 119.27 927.448 125.23C927.858 128.14 919.468 138.99 917.748 139.57C914.758 140.57 906.038 131.44 901.928 129.65C896.198 127.16 888.598 126.3 892.978 134.61C907.508 143.58 924.978 152.63 919.108 172.87C911.998 197.36 878.098 187.4 863.828 175.25H863.838Z" fill="black"/>
<path d="M456.558 66.8001C452.598 73.3201 469.618 74.3001 472.468 75.1201C479.938 77.2701 485.628 78.5601 490.058 85.5301C493.018 90.1801 495.408 96.3801 494.138 101.91C490.878 116.14 477.758 123.93 463.958 124.72C458.038 125.06 437.438 123.57 434.918 117.71C434.398 116.5 439.718 100.03 440.978 99.6901C448.508 102.76 459.558 106.92 467.718 104.48C470.898 103.53 471.088 99.0501 468.758 97.6001C465.908 95.8401 453.828 94.6001 449.448 93.1601C440.318 90.1601 434.488 85.0101 433.558 75.0601C431.258 50.5201 452.778 42.4601 473.668 44.9401C476.938 45.3301 488.408 47.9001 489.288 51.3801C489.708 53.0701 484.498 68.2601 482.468 69.2101C481.498 69.6601 472.268 65.0201 468.928 64.6901C466.478 64.4401 457.758 64.8602 456.558 66.8202V66.8001Z" fill="black"/>
<path d="M377.559 77.5503C378.749 79.5003 399.219 81.3303 404.109 83.4903C417.309 89.3303 418.139 106.2 411.799 117.56C406.199 127.6 389.709 131.98 378.919 131.74C375.369 131.66 360.189 129.47 358.869 126.65C357.899 124.57 361.799 109.26 363.349 108.09C364.569 107.17 377.609 111.8 381.919 111.75C385.719 111.7 397.409 109.85 391.959 104.63C388.039 100.87 370.759 102.33 362.929 96.6703C351.839 88.6403 352.549 71.7103 360.469 61.4603C367.019 52.9903 384.699 49.7603 394.909 50.6803C397.659 50.9303 408.449 53.0203 409.249 55.3303C410.229 58.1603 406.279 72.8503 403.389 74.2403C402.469 74.6803 395.269 71.2803 392.659 70.9303C388.849 70.4303 373.429 70.8003 377.559 77.5403V77.5503Z" fill="black"/>
<path d="M888.189 410.9C890.509 412.97 887.479 414.82 886.899 416.65C885.549 420.91 881.289 432.79 887.989 433.7C894.089 434.53 899.929 421.46 903.449 417.19C921.629 395.16 950.279 413.85 950.509 439.17C950.589 448.13 945.419 457.01 943.309 465.56C936.059 465.91 929.409 462.71 922.409 461.66C921.439 460.72 926.389 452.44 926.949 450.7C927.609 448.64 927.289 446.49 927.639 444.39C928.089 441.72 930.749 439.04 926.919 435.66C920.039 429.57 915.479 443.03 912.849 446.61C906.239 455.6 900.599 460.09 888.859 459.72C867.299 459.04 861.589 439.86 864.469 421.24C864.719 419.59 868.749 407.55 869.389 407.17C871.269 406.05 886.769 409.65 888.179 410.91L888.189 410.9Z" fill="black"/>
<path d="M52.4184 281.18C52.6684 280.36 55.1284 279.13 56.1384 278.9C58.9084 278.26 67.4184 277.87 70.9284 277.69C84.1584 277.02 97.7384 277.19 110.928 276.69C119.708 276.36 128.518 276.22 137.278 275.82C140.038 288.57 140.438 301.2 140.378 314.22C140.378 315.66 142.318 323.68 138.928 323.68H123.928C122.938 323.68 121.208 324.94 119.908 322.7C119.688 322.33 118.428 314.69 118.428 314.18V299.68C116.878 299.38 105.428 299.82 105.428 300.68V322.18C105.428 322.29 104.038 323.68 103.928 323.68H86.9284C86.8184 323.68 85.4284 322.29 85.4284 322.18V303.18C85.4284 302.08 82.9884 301.75 81.9784 301.63C77.2484 301.08 69.9284 301.55 64.8884 301.63C63.0084 301.66 52.4284 304.09 52.4284 300.17C52.4284 296.25 51.6084 283.88 52.4284 281.17L52.4184 281.18Z" fill="black"/>
<path d="M187.519 631.57C186.459 630.67 185.619 616.73 180.989 616.75L120.079 635.74C117.609 629.1 115.119 622.11 113.519 615.34L173.299 594.55C174.639 588.46 169.049 583.81 169.859 577.67C170.619 576.44 185.219 571.42 186.869 571.63C189.629 571.99 191.159 576.07 192.109 578.5C195.659 587.56 198.399 598.46 201.749 607.86C203.249 612.07 209.619 622.3 206.959 626.69C206.109 628.09 189.219 633 187.529 631.57H187.519Z" fill="black"/>
<path d="M821.258 164.51C819.848 165.37 800.298 160.51 799.518 158L809.418 104.68C806.428 103.54 791.948 101.34 790.878 99.7104C788.358 95.8704 792.928 85.2104 793.458 80.6904C813.238 85.1604 832.738 90.6804 852.158 96.4304C857.328 97.0104 851.458 114.53 850.488 115.24C846.998 117.78 834.518 109.02 831.898 112.65L821.268 164.5L821.258 164.51Z" fill="black"/>
<path d="M272.729 919.37C271.199 918.23 267.259 911.42 265.389 909.2C260.609 903.53 254.389 897.44 249.999 891.59C248.509 889.6 245.579 886.11 246.859 883.69L311.429 835.17C312.789 834.33 314.019 834.52 315.399 835.17C316.369 835.63 328.459 851.13 328.369 852.2L278.859 889.67C278.049 890.4 278.559 890.91 278.889 891.67C280.879 896.16 287.699 902.05 290.479 906.14C291.159 907.14 291.689 907.64 291.329 909.01C291.099 909.88 278.479 919.45 277.119 919.93C275.759 920.41 273.879 920.24 272.729 919.38V919.37Z" fill="black"/>
<path d="M374.768 902.32C376.828 904.38 384.058 906.99 381.488 910.95L338.078 950.94L337.878 954.65L350.868 966.68C351.588 967.74 351.578 968.98 351.518 970.2C351.468 971.22 338.918 984.47 336.058 982.58L306.358 954.24C305.148 952.92 305.058 951.29 305.928 949.74L363.428 894.18C368.258 891.92 371.958 899.54 374.758 902.33L374.768 902.32Z" fill="black"/>
<path d="M880.058 343.82L959.718 351.88C964.288 353.24 960.798 369.32 959.168 372.92C956.868 377.98 947.828 374.21 942.908 373.69C928.578 372.18 914.238 370.45 899.818 368.78C895.558 368.29 878.578 368.48 876.898 365.69C875.178 362.85 879.638 349.72 878.558 345.31L880.058 343.82Z" fill="black"/>
<path d="M635.998 966.1C628.018 956.6 616.248 945.09 609.758 935.35C604.968 928.15 621.018 921.31 624.918 916.72L676.448 978.22C676.718 979.93 676.518 980.83 675.398 982.16C674.648 983.05 662.258 992.8 661.378 993.19C660.498 993.58 660.158 993.84 659.118 993.57C656.188 992.81 639.368 970.11 635.998 966.09V966.1Z" fill="black"/>
<path d="M430.918 281.68C432.618 282.03 434.848 284.18 434.478 286.12C432.378 321.67 437.058 360 434.458 395.22C433.758 404.71 426.658 400.28 418.868 400.64C411.148 401 403.958 402.07 395.868 401.72C392.268 401.56 383.868 401.21 380.938 400.65C379.838 400.44 377.408 398.92 377.408 398.18V340.18C377.408 340.07 376.018 338.68 375.908 338.68H332.408C333.038 343.28 331.588 347.64 331.358 352.13C327.278 432.91 334.548 517.09 331.358 598.22C331.408 600.12 332.338 608.67 333.908 608.67H374.908C375.018 608.67 376.408 607.28 376.408 607.17V516.17C376.408 512.41 382.568 512.87 384.898 512.64C385.958 512.54 388.268 513.28 387.398 511.18C386.028 507.88 363.968 499.6 362.618 494.96L362.358 440.12C362.208 436.24 365.188 435.89 368.128 437.45C387.478 449.14 406.988 460.66 426.508 472.06C431.318 474.87 450.398 482.73 450.398 488.17V542.17C450.398 551.27 434.418 533.36 433.408 541.18L433.428 664.2C431.778 665.51 429.938 665.55 427.948 665.72C380.638 669.73 327.748 662.57 279.838 665.73C278.338 666.32 274.398 664.33 274.398 663.17V283.17C274.398 283.06 275.788 281.67 275.898 281.67H430.898L430.918 281.68Z" fill="black"/>
<path d="M638.918 281.68C640.618 282.03 642.848 284.18 642.478 286.12C640.178 321.48 645.338 360.28 642.458 395.22C642.328 396.79 642.288 399.3 641.178 400.43C639.098 402.54 595.638 398.86 589.038 401.43C582.598 398.15 586.338 391.43 586.458 386.21C586.708 375.72 587.018 363.51 586.458 353.13C586.328 350.76 585.258 338.67 583.918 338.67H540.418L539.608 414.98L596.318 449.27C597.368 450.75 597.308 452.42 597.458 454.13C598.558 466.16 598.628 491.26 597.468 503.24C597.158 506.47 596.488 509.63 592.388 508.28C579.738 500.34 566.528 493.41 553.538 486.05C550.898 484.56 545.628 479.97 543.338 479.17C542.308 478.81 539.408 479.49 539.408 479.68V663.18C539.408 663.36 537.088 665.68 536.908 665.68H484.908C484.798 665.68 483.408 664.29 483.408 664.18V455.18C483.408 452.49 494.498 454.85 494.388 452.18C494.308 450.21 471.988 441.22 469.918 436.67C468.328 433.18 469.418 406.31 469.448 400.14C469.448 398.39 468.588 396.72 468.608 395.18C468.638 392.79 469.418 378.4 469.878 377.65C471.648 374.74 483.408 386.02 483.408 380.18V283.18C483.408 283.07 484.798 281.68 484.908 281.68H638.908H638.918Z" fill="black"/>
<path d="M762.418 492.68C759.508 495.56 739.718 480.12 735.458 479.11C734.358 478.85 733.418 479.82 733.418 480.18V663.18C733.418 664.45 730.289 665.55 728.969 665.73C719.109 667.06 692.218 666.66 681.868 665.73C679.768 665.54 676.368 665.37 675.578 663.02L675.418 459.17C675.008 450.62 684.298 456.52 686.418 451.2C678.018 446.07 668.408 442.23 661.418 435.19V378.19C661.418 373.27 673.818 382.32 675.418 381.69V285.19C675.418 284.94 678.668 281.69 678.918 281.69H731.918C732.028 281.69 733.418 283.08 733.418 283.19V415.19C734.538 416.44 735.718 417.54 737.078 418.53C743.088 422.87 754.688 427.29 759.938 431.67C760.538 432.17 762.418 434.78 762.418 435.19V492.69V492.68Z" fill="black"/>
<path d="M494.918 814.68C498.908 814 500.138 805.97 501.088 802.85C502.368 798.68 504.018 794.32 505.328 790.9C506.988 786.57 508.768 782.16 509.918 777.67L522.408 813.19C526.578 816.89 554.518 813.65 561.418 813.68C561.158 818.81 555.268 818.9 552.888 820.64C551.458 821.68 550.428 823.55 548.898 824.65C543.118 828.83 536.578 832.43 531.608 837.37C529.948 842.78 535.458 853.06 537.158 858.43C537.808 860.48 537.118 862.86 537.618 864.97C538.118 867.08 543.628 874.18 542.408 875.67L512.998 854.6C512.088 853.93 511.058 853.57 509.918 853.57C505.758 853.57 486.958 870.41 481.738 873.49C480.628 874.15 479.878 874.97 478.418 874.66C476.678 872.74 482.838 862.14 483.748 859.5C484.438 857.49 484.108 855.33 484.718 853.47C486.138 849.14 490.608 841.6 489.428 837.37C488.948 835.67 463.688 820.22 460.498 817.08L458.418 813.67C459.708 813.17 460.708 814.66 460.918 814.66C470.228 814.66 486.628 816.07 494.918 814.66V814.68Z" fill="#71B641"/>
<path d="M633.589 729.51C635.429 732.7 660.079 731.78 664.969 731.72C666.399 731.7 672.449 729.68 672.409 732.18C672.379 733.93 647.198 747.77 644.678 753.47C642.148 759.19 647.638 769.38 649.378 775.23C649.848 776.82 649.078 779.07 649.628 780.98C650.128 782.72 656.478 789.31 651.428 790.2C645.958 786.94 626.858 769.76 621.918 769.76C618.208 769.76 610.018 778.55 606.958 780.72C605.448 781.79 603.398 781.58 601.888 782.65C598.808 784.83 596.188 790.03 591.428 789.68C591.638 787.68 591.008 785.25 591.448 783.38C591.568 782.88 595.638 776.39 596.168 774.93C597.848 770.33 598.338 764.8 599.458 760.39C599.638 759.68 603.128 758.86 601.248 753.34C595.298 749.72 590.179 744.77 584.659 740.72C580.449 737.62 574.198 735.79 571.418 730.69C581.668 731.44 593.729 732.65 603.969 731.73C610.239 731.16 611.018 728.46 613.168 722.91C615.438 717.06 616.088 709.01 618.458 702.21C619.488 699.25 622.228 697.78 621.928 693.67C625.678 697.61 624.599 701.92 625.659 705.95C627.099 711.42 631.328 718.88 633.178 724.45C633.728 726.1 633.019 728.5 633.599 729.52L633.589 729.51Z" fill="#71B641"/>
<path d="M409.658 730.44C413.398 733.61 441.018 730.85 447.408 730.68C447.748 732.26 446.928 732.75 445.918 733.68C439.608 739.5 427.638 745.7 420.478 751.24C419.328 752.13 418.148 753.01 417.508 754.39L428.408 789.67C426.908 791.08 421.698 785.26 420.318 784.26C416.138 781.25 400.948 769.44 396.978 769.68C392.108 769.98 371.628 787.87 366.418 791.67C367.558 783.73 371.838 775.6 374.188 767.95C374.708 766.26 374.078 764.11 374.618 762.38C375.408 759.82 379.148 758.81 377.248 753.34C376.648 751.61 352.448 736.21 348.688 732.97C347.978 732.36 346.798 733.01 347.418 730.68C354.348 730.9 380.558 733.74 385.118 730.37C387.248 728.79 389.958 716.29 391.488 712.44C392.938 708.8 392.508 709.29 393.468 705.23C394.328 701.57 397.338 698.9 396.428 694.68C401.018 697.07 399.588 702.62 400.628 705.97C401.018 707.24 402.628 707.94 403.158 709.44C404.238 712.49 408.828 729.73 409.668 730.44H409.658Z" fill="#71B641"/>
<path d="M545.109 249.37C543.589 250.74 538.359 252.37 536.269 252.14C520.329 250.42 520.159 218.06 537.879 218.63C551.729 219.07 552.929 242.321 545.109 249.361V249.37ZM536.429 225.68C532.879 232.02 531.829 238.8 536.909 244.66C541.199 244.69 542.799 226.93 536.429 225.68Z" fill="black"/>
<path d="M433.918 217.68C435.838 218.22 437.318 222.88 436.288 224.55C435.028 226.57 419.788 223.93 423.428 229.66C424.578 231.47 440.778 228.36 434.528 237.09C433.508 238.52 421.578 235.94 423.428 242.14C424.688 246.35 439.848 239.04 436.418 250.68H415.918C415.808 250.68 414.418 249.29 414.418 249.18V219.18C414.418 219.07 415.808 217.68 415.918 217.68C419.978 217.68 430.998 216.86 433.918 217.68Z" fill="black"/>
<path d="M513.649 239.89C510.309 245.96 519.888 242.56 521.288 244.81C521.898 245.8 521.598 249.45 520.488 250.24C519.538 250.92 503.258 251 500.878 250.72C496.848 250.24 496.589 248.69 498.349 245.09C501.049 239.55 510.468 237.24 511.128 230.01C511.758 223.19 502.268 228.8 499.878 226.8C492.148 220.31 512.118 213.8 518.428 223.18C521.368 227.55 520.828 233.3 517.498 237.26C516.498 238.44 513.829 239.58 513.659 239.9L513.649 239.89Z" fill="black"/>
<path d="M554.918 250.68C554.768 250.64 552.998 248.97 552.868 248.69C551.368 245.49 568.198 234.5 567.268 229.31C566.268 223.77 552.228 230.22 554.568 222.36C556.438 216.06 579.478 216.24 575.928 231.68C574.648 237.25 569.888 238.75 569.418 243.67C575.878 242.96 577.128 244.18 576.418 250.67C570.668 249.66 559.958 252.04 554.918 250.67V250.68Z" fill="black"/>
<path d="M582.418 250.68C580.968 242.67 589.668 238.22 594.488 233.26C600.098 221.83 582.768 230.72 582.438 224.22C582.108 217.71 600.338 215.03 603.748 225.84C606.708 235.2 598.608 236.73 598.378 242.16C598.238 245.36 602.398 242.39 603.988 244.61C605.048 246.09 604.388 250.68 602.918 250.68H582.418Z" fill="black"/>
<path d="M451.418 231.67C451.258 231.79 450.248 235.02 450.828 235.72C452.548 237.8 459.638 236.24 459.458 243.18C459.168 254.35 439.558 253.15 439.438 248.24C439.308 242.86 444.548 244.98 448.418 244.67C450.588 242.76 439.228 239.06 439.648 234.34C440.488 224.9 459.478 223.55 458.368 230.05C457.608 234.49 451.748 231.42 451.428 231.66L451.418 231.67Z" fill="black"/>
<path d="M473.658 225.44C474.868 226.63 477.418 225.71 478.008 228.61C478.978 233.44 473.408 232.46 473.328 238.16C473.238 244.98 478.158 243.87 478.478 247.22C479.098 253.79 467.078 252.92 464.978 246.62C463.788 243.05 464.978 239.74 464.218 236.38C463.198 231.88 458.158 230.43 464.418 224.18C471.748 216.87 471.178 223 473.658 225.45V225.44Z" fill="black"/>
</svg>
