<svg class="svgicon svgicon-close" xmlns="http://www.w3.org/2000/svg" width="16" height="16" viewBox="0 0 16 16"><path fill-rule="evenodd" clip-rule="evenodd" d="M9.69956 8L15.648 13.9485C15.8734 14.1738 16 14.4795 16 14.7982C16 15.117 15.8734 15.4226 15.648 15.648C15.4226 15.8734 15.117 16 14.7982 16C14.4795 16 14.1738 15.8734 13.9485 15.648L8 9.69956L2.05155 15.648C1.82617 15.8734 1.5205 16 1.20177 16C0.88304 16 0.577365 15.8734 0.35199 15.648C0.126614 15.4226 0 15.117 0 14.7982C0 14.4795 0.126614 14.1738 0.35199 13.9485L6.30044 8L0.35199 2.05155C0.126614 1.82617 0 1.5205 0 1.20177C0 0.88304 0.126614 0.577366 0.35199 0.35199C0.577365 0.126615 0.88304 6.0781e-07 1.20177 6.0781e-07C1.5205 6.0781e-07 1.82617 0.126615 2.05155 0.35199L8 6.30044L13.9485 0.35199C14.1738 0.126615 14.4795 0 14.7982 0C15.117 0 15.4226 0.126615 15.648 0.35199C15.8734 0.577366 16 0.88304 16 1.20177C16 1.5205 15.8734 1.82617 15.648 2.05155L9.69956 8Z"/></svg>