<svg class="svgicon svgicon-gimmick" xmlns="http://www.w3.org/2000/svg" width="140.5" height="470" viewBox="0 0 316 1057"><path d="M0,0l286.08,452.09c.14,3.06-1.06.69-1.81-.19-1.81-2.13-6.04-9.12-7.8-9.17-3.97-.11-.9,2.59-.27,4.29,2.51,6.76,2,2.97,3.71,4.7.48.48.15,2.88,1.12,4.42.9,1.43,3.3,1.91,3.81,2.69,1.16,1.78.03,5.15.8,6.66.89,1.75,4.99,3.39,2.97,6.05-2.53-.6-5.44-6.69-6-6.98-2.15-1.12-.8,2.46-2.46,1.99-.07-3.86-3.97-2.3-5.99-4.5l2.98-.99c-.5-3.18-4.51-3.11-4.85-3.63-.63-.95.41-3.32-.34-4.66-.9-1.62-5.3-2.34-5.54-2.54-2.93-2.46-8.92-13.34-11.07-17.24-.83-1.49-1.88-2.54-3.1-1.41,3.41,7.11,7.77,12.17,10.38,19.91.57,1.68,1.43,3.33,1.43,3.56-.02,5.23,1.57,3.06,4.91,5.67.29.22,1.3,6.22,1.45,6.55.11.27,3.86,3.28,4.75,3.28.44,1.68-1.32.59-1.79,1.13-.19.22.78,1.43.54,1.68-.57.57-4.78.67.27,2.68l-2.51,1.49c-.47-4.7-.39-7.32-5.45-3.5,2.58,3.81,5.17,7.48,7.6,11.41s4.99,9.05,8.34,13.34c.7.89,1.9.66,1.96.75,1.82,2.6-2.81,1.83-2.97,1.98-.53.52,1.46,5.51,1,6.99,3.29,1.34.93-4.31,3.47-2.99.79.41,1.35,2.07,2.13,2.92.68.74,2.1,1.01,2.23,1.2.31.46-1.41,2.5-.75,3.72.38.71,5.54,2.62,6.87,2.15.37,1.75-1.17,2.23-1.66,3.69-.21.62.67,1.81.45,2.15-.25.4-1.84.48-2.28,1.12-1.94,2.85,1.68,5.63,1.04,7.04-.88,1.95-6.37,5.99-7.92,8.08-.67.91-.44,2.62-.68,2.88-.35.38-2.63-1.44-3.44-.04-.86,1.48-.27,4.16-.9,6.11-.42,1.28-5.11,6.42-4.55,6.92,2.42.38,3.57-.81,4.99-2.48,1.92-2.26,5.42-11.27,7.08-12.38.35-.24,7.62,2.92,2.88-3.1h3s-1-4.01-1-4.01l1.99.5v-3.5c5.41,2.87,5.11-5.31,5.99-5.98,1.84-1.4,2.08,1.56,2.23,1.65,4.35,2.71,2.07-3.69,2.75-4.65l3.98,2.51c-3.53,3.92-12.51,21.05-1.49,11.48l.48,1.48C203.87,707.2,103.65,882.31,1,1056h-1V0Z"/></svg>