<svg class="svgicon svgicon-team" xmlns="http://www.w3.org/2000/svg" width="16" height="18" viewBox="0 0 16 18"><path fill-rule="evenodd" clip-rule="evenodd" d="M8.01058 4.0058L8.14405 4.01824L8.16358 4.0199L8.1823 4.02239C8.67267 4.10434 8.97883 4.44468 9.14425 4.66584C9.24363 4.79885 9.33798 4.95348 9.42584 5.10531L9.42991 5.1136L9.66918 5.54312L9.67243 5.54643L9.80264 5.78939L9.8238 5.82587L9.84496 5.83168L9.84741 5.8325L10.0435 5.87894C10.3956 5.96037 10.7719 6.04469 11.0616 6.16169C11.3296 6.27002 11.7122 6.47935 11.9227 6.92206L11.9308 6.93864L11.9373 6.95522L11.9862 7.08126L11.9935 7.10033L12 7.12023C12.1702 7.68412 11.9515 8.15697 11.7786 8.43864C11.6495 8.64905 11.4661 8.87621 11.2781 9.10282L11.117 9.29934L11.1145 9.30182L11.1023 9.31592L10.9819 9.4602C10.9684 9.47641 10.9568 9.4912 10.9461 9.50415C10.9479 9.52319 10.9494 9.54491 10.9518 9.56965V9.57214L10.9713 9.78607L11.0226 10.364C11.0356 10.5523 11.0417 10.7321 11.0348 10.8922C11.0209 11.2114 10.9456 11.7458 10.4757 12.1128C9.98615 12.4948 9.44797 12.4039 9.14018 12.3134C8.99124 12.2696 8.82929 12.205 8.66328 12.1327L8.16277 11.9022L7.97558 11.8143C7.97232 11.8127 7.96895 11.8108 7.96582 11.8093L7.94873 11.8176L7.94791 11.8167L7.76887 11.9013C7.44172 12.0563 7.09148 12.2258 6.79308 12.3134C6.48504 12.4038 5.94736 12.4945 5.45839 12.1128C4.98958 11.746 4.91241 11.2117 4.89847 10.8922C4.8846 10.5724 4.92595 10.174 4.96277 9.7869L4.98311 9.57048C4.98545 9.54596 4.98627 9.52418 4.988 9.50498C4.97751 9.49232 4.96609 9.47754 4.953 9.46186L4.8179 9.30017L4.81709 9.29851C4.57607 9.00934 4.3223 8.70895 4.15626 8.43864C3.98372 8.15755 3.76395 7.68417 3.93489 7.1194C4.11 6.54371 4.56433 6.286 4.87162 6.16169L5.10356 6.0796C5.18513 6.05396 5.27028 6.02956 5.35748 6.00663L5.88972 5.87894L6.08505 5.8325L6.10865 5.8267C6.1143 5.81632 6.12171 5.80547 6.12818 5.79353L6.22991 5.60614L6.23235 5.60116L6.50336 5.1136L6.50743 5.10531C6.59534 4.95337 6.68967 4.79968 6.78901 4.66667C6.97788 4.41397 7.35392 4.00449 7.96745 4.00415H7.98861L8.01058 4.0058ZM7.92431 6.56799L7.92269 6.57048L7.82096 6.7529C7.7567 6.87139 7.62942 7.13908 7.40671 7.35323L7.30498 7.44113C7.3007 7.44446 7.29546 7.44699 7.29115 7.45025L7.30498 7.44113L6.52045 7.76285L6.32106 7.80929L6.31943 7.81012C6.26042 7.82377 6.20573 7.83721 6.15504 7.84909C6.19659 7.89927 6.24157 7.95471 6.29176 8.01493L6.42686 8.17662L6.52533 8.29353C6.64019 8.43429 6.79209 8.64417 6.87121 8.90381L6.90458 9.03648C6.93089 9.1673 6.93764 9.29089 6.93632 9.39884V9.41459L6.93469 9.42952L6.9119 9.74876L6.91109 9.76036L6.89074 9.97761C6.88524 10.0355 6.8808 10.09 6.87609 10.141C6.90206 10.1287 6.92947 10.1169 6.95748 10.1036L6.95992 10.1028L7.15768 10.01L7.43683 9.88723L7.45229 9.8806L7.46775 9.87479C7.60066 9.8265 7.77255 9.77956 7.96745 9.77944H7.9943L8.02116 9.78275L8.21648 9.80348L8.24008 9.80846C8.4766 9.85832 8.68952 9.9694 8.78779 10.0158L8.97416 10.1036C9.00313 10.1173 9.03034 10.13 9.05717 10.1426C9.05242 10.0912 9.04889 10.0361 9.04334 9.97761L9.02299 9.76119L9.00753 9.60531C8.99197 9.42123 8.98388 9.16106 9.06205 8.90381L9.10763 8.77778C9.2249 8.495 9.41664 8.28434 9.50478 8.17828L9.5178 8.16335L9.64395 8.01327C9.69356 7.95382 9.73789 7.89882 9.77904 7.84909C9.72858 7.83727 9.67418 7.8237 9.61546 7.81012L9.61383 7.80929L9.41689 7.76285C9.27161 7.7294 8.92029 7.66761 8.62909 7.44113C8.34469 7.21948 8.18706 6.89247 8.11312 6.75705L8.10743 6.7471L8.10336 6.73881L8.00895 6.56634C7.99458 6.53991 7.98009 6.51389 7.96663 6.48922C7.95289 6.51442 7.93902 6.54096 7.92431 6.56799ZM9.93611 6.02653C9.93502 6.02444 9.93407 6.02215 9.93286 6.0199C9.93069 6.01587 9.92756 6.01153 9.92472 6.00663C9.92878 6.0141 9.93313 6.02045 9.93611 6.02653Z"/><path fill-rule="evenodd" clip-rule="evenodd" d="M8 0C8.83326 0 9.6211 0.290072 10.7849 0.699005L11.2326 0.855721C12.3948 1.26352 13.3074 1.58352 13.963 1.85655C14.2095 1.95923 14.4374 2.06236 14.6393 2.16915L14.8321 2.27778L15.012 2.39221C15.1954 2.51826 15.3848 2.67987 15.5296 2.89138C15.72 3.1694 15.807 3.49338 15.8576 3.76202C15.911 4.04628 15.9423 4.3773 15.9617 4.74295C16.0004 5.47078 16 6.46423 16 7.73217V8.99337C15.9997 14.1188 12.213 16.5611 10.0297 17.5381C9.82825 17.6284 9.61863 17.7235 9.38759 17.8018L9.14914 17.874C8.80601 17.9641 8.45033 18 8 18C7.66237 18 7.37792 17.9802 7.11211 17.932L6.85086 17.874C6.52198 17.7875 6.23886 17.6584 5.97029 17.5381C3.78754 16.5605 0.000292668 14.1198 1.9615e-07 8.99337V7.73217C1.93029e-07 6.464 -0.000424363 5.47066 0.0382505 4.74295C0.0576933 4.37736 0.0888875 4.04487 0.142421 3.76036C0.193084 3.49142 0.280429 3.16883 0.470397 2.89138C0.663515 2.60937 0.93577 2.41594 1.16785 2.27778L1.36073 2.16915C1.56261 2.06236 1.79053 1.95923 2.03703 1.85655C2.69248 1.58355 3.60536 1.26345 4.76745 0.855721L5.21506 0.699005L5.21668 0.698176L6.02726 0.416252L6.03133 0.415423C6.77155 0.165732 7.36597 0 8 0ZM8 1.98093C7.6833 1.98093 7.35259 2.05623 6.65392 2.29104L5.84252 2.57214L5.84171 2.57131L5.39736 2.72886C4.21107 3.14507 3.36104 3.44316 2.76867 3.68988C2.47311 3.81299 2.27272 3.91061 2.14201 3.98839L2.1412 3.98756C2.1094 4.00652 2.08631 4.02463 2.06796 4.03731C2.06168 4.06138 2.05305 4.0933 2.04517 4.13516C2.01573 4.29175 1.99021 4.52146 1.97274 4.84992C1.93761 5.51057 1.93774 6.43839 1.93774 7.73217V8.99337C1.93799 12.9008 4.77584 14.8416 6.74751 15.7247C7.04473 15.8579 7.18228 15.9173 7.33265 15.9569C7.46964 15.9929 7.65308 16.0207 8 16.0207C8.34692 16.0207 8.53036 15.9929 8.66735 15.9569C8.81772 15.9173 8.95527 15.8579 9.25249 15.7247C11.2237 14.8426 14.062 12.9002 14.0623 8.99337V7.73217C14.0623 6.43911 14.0624 5.51148 14.0273 4.85075C14.0098 4.522 13.9843 4.29176 13.9548 4.13516C13.947 4.09357 13.9375 4.06125 13.9312 4.03731C13.9128 4.02461 13.8898 4.00648 13.858 3.98756C13.7273 3.90978 13.5269 3.81299 13.2313 3.68988C12.639 3.44316 11.7897 3.14507 10.6035 2.72886L10.1558 2.57131C8.86982 2.11945 8.43493 1.98093 8 1.98093Z"/></svg>