<svg class="svgicon svgicon-player" xmlns="http://www.w3.org/2000/svg" width="18" height="20" viewBox="0 0 18 20"><path fill-rule="evenodd" clip-rule="evenodd" d="M4.63672 11.002L4.76074 11.0068L4.77148 11.0078L4.78125 11.0088C4.86344 11.0155 4.9454 11.0268 5.02637 11.043L5.2666 11.1064L5.27051 11.1074L6.20117 11.4189C7.72748 11.9287 9.37212 11.9287 10.8984 11.4189L11.8301 11.1064C12.042 11.0359 12.264 11.001 12.4844 11.001H12.8506C13.9811 11.001 15.0635 11.4611 15.8594 12.2754C16.6547 13.0892 17.0995 14.1907 17.0996 15.3369V16.6445C17.0995 17.5682 16.4447 18.3685 15.5332 18.5205C10.9087 19.2928 6.19187 19.2928 1.56738 18.5205C1.12719 18.4464 0.72841 18.2152 0.442383 17.8711C0.174438 17.5487 0.0207429 17.1465 0.00195312 16.7285L0.000976562 16.7158L0 16.6553V15.3369C0.000114773 14.1907 0.44489 13.0892 1.24023 12.2754C2.03612 11.4611 3.11846 11.001 4.24902 11.001H4.625L4.63672 11.002ZM4.24902 13.0723C3.66873 13.0723 3.10934 13.308 2.69531 13.7314C2.28109 14.1553 2.04601 14.7328 2.0459 15.3369V16.5C6.35507 17.2031 10.7456 17.2031 15.0537 16.5V15.3369C15.0536 14.7328 14.8185 14.1553 14.4043 13.7314C13.9903 13.308 13.4309 13.0723 12.8506 13.0723H12.4893L12.4648 13.0752L11.541 13.3857C9.71939 13.9942 7.76312 14.0325 5.9248 13.5L5.55859 13.3857L4.63379 13.0762L4.625 13.0732L4.61035 13.0723H4.24902Z"/><path fill-rule="evenodd" clip-rule="evenodd" d="M8.5498 0C9.17988 0 9.80344 0.126757 10.3848 0.373047C10.9662 0.619482 11.4946 0.980404 11.9385 1.43457C12.3824 1.88872 12.734 2.42757 12.9736 3.01953C13.2132 3.6113 13.3369 4.24558 13.3369 4.88574C13.3369 6.17797 12.8347 7.41987 11.9385 8.33691C11.0417 9.25436 9.82284 9.77148 8.5498 9.77148C7.27677 9.77148 6.05789 9.25436 5.16113 8.33691C4.26491 7.41987 3.76273 6.17797 3.7627 4.88574C3.76273 4.24558 3.88641 3.6113 4.12598 3.01953C4.36564 2.42757 4.71726 1.88872 5.16113 1.43457C5.60505 0.980404 6.13336 0.619482 6.71484 0.373047C7.29617 0.126757 7.91973 0 8.5498 0ZM8.5498 2.07129C7.82665 2.07129 7.13101 2.36489 6.61621 2.8916C6.1011 3.41866 5.80963 4.1357 5.80957 4.88574C5.8096 5.63574 6.10111 6.35278 6.61621 6.87988C7.13111 7.4067 7.82679 7.70117 8.5498 7.70117C9.27282 7.70117 9.9685 7.4067 10.4834 6.87988C10.9985 6.35278 11.29 5.63574 11.29 4.88574C11.29 4.1357 10.9985 3.41866 10.4834 2.8916C9.9686 2.36489 9.27296 2.07129 8.5498 2.07129Z"/></svg>