<svg class="svgicon svgicon-coach" xmlns="http://www.w3.org/2000/svg" width="17" height="17" viewBox="0 0 17 17"><path d="M7.49927 0H5.59927V4.3H7.49927V0Z"/><path d="M11.7293 4.24L12.9593 2.54L12.8393 2.45L12.7693 2.4L11.6593 1.6L11.4193 1.42L9.50927 4.06L9.33927 4.3H11.6793L11.7293 4.24Z"/><path d="M15.9993 5.75H7.19927V7.5H12.6893L8.90927 8.57L8.79927 8.6V10.94C8.79927 11.62 8.59927 12.29 8.21927 12.86C7.83927 13.43 7.29927 13.87 6.66927 14.13C6.03927 14.39 5.34927 14.46 4.67927 14.33C4.00927 14.2 3.39927 13.87 2.90927 13.39C2.42927 12.91 2.09927 12.29 1.96927 11.62C1.83927 10.95 1.90927 10.26 2.16927 9.63C2.42927 9 2.86927 8.46 3.43927 8.08C4.00927 7.7 4.66927 7.5 5.35927 7.5H5.90927V5.6H5.35927C4.29927 5.6 3.26927 5.91 2.38927 6.5C1.50927 7.09 0.819271 7.92 0.419271 8.9C-0.000728667 9.88 -0.100729 10.96 0.0992713 11.99C0.309271 13.03 0.819271 13.98 1.55927 14.73C2.30927 15.48 3.25927 15.99 4.29927 16.19C5.33927 16.4 6.40927 16.29 7.38927 15.89C8.36927 15.48 9.19927 14.8 9.78927 13.92C10.3793 13.04 10.6893 12.01 10.6893 10.95V9.79L16.2893 8.26V5.75H15.9893H15.9993Z"/><path d="M2.04927 5.14L2.15927 5.08C2.62927 4.83 3.13927 4.64 3.65927 4.52L3.62927 4.37L3.58927 4.22C3.58927 4.22 3.54927 4.23 3.52927 4.24L1.64927 1.63L1.56927 1.51L1.47927 1.39L0.169271 2.33L0.0492713 2.42L1.96927 5.04L2.04927 5.14Z"/></svg>