<svg class="svgicon svgicon-logout" xmlns="http://www.w3.org/2000/svg" width="16" height="16" viewBox="0 0 16 16"><path d="M1.91805 11.5209C2.37157 11.1584 3.03433 11.2318 3.39728 11.6856C3.94919 12.3758 4.64971 12.9328 5.44632 13.3156C6.24268 13.6981 7.11502 13.8962 7.99873 13.8957C8.57941 13.8954 9.05157 14.3666 9.05225 14.9474C9.05256 15.5281 8.58117 15.9993 8.0006 16C6.801 16.0007 5.61612 15.7306 4.53501 15.2112C3.45413 14.6919 2.50334 13.9359 1.75431 12.9993C1.39236 12.546 1.4652 11.8838 1.91805 11.5209Z"/><path d="M11.6786 4.57825C12.0917 4.24163 12.7017 4.26555 13.0867 4.65029L15.6924 7.25614L15.7645 7.33567C16.1011 7.74874 16.0767 8.358 15.6924 8.74292L13.0867 11.3488C12.676 11.7596 12.0089 11.7595 11.5981 11.3488C11.1887 10.9382 11.1883 10.2726 11.5981 9.86199L12.4084 9.05076H6.26313C5.68219 9.05076 5.21148 8.58002 5.21148 7.99906C5.21185 7.41868 5.68217 6.94737 6.26313 6.94737H12.4084L11.5981 6.13708C11.1885 5.72651 11.1881 5.06093 11.5981 4.65029L11.6786 4.57825Z"/><path d="M7.99966 0C8.57961 0.000243253 9.05225 0.470109 9.05225 1.0517C9.05203 1.63309 8.57947 2.10315 7.99966 2.10339C6.43603 2.10349 4.93625 2.72485 3.83048 3.83064C2.72482 4.93635 2.1035 6.43554 2.1033 7.99906C2.1033 8.57912 1.63317 9.05242 1.05165 9.05263C0.469947 9.05263 0 8.57925 0 7.99906C0.000192575 5.87759 0.841671 3.84226 2.34189 2.34199C3.84208 0.84177 5.87829 0.000240682 7.99966 0Z"/></svg>