<svg class="svgicon svgicon-location" xmlns="http://www.w3.org/2000/svg"width="13" height="15" viewBox="0 0 13 15"><path fill-rule="evenodd" clip-rule="evenodd" d="M6.28027 3.24227C7.93684 3.24253 9.28017 4.58566 9.28027 6.24227C9.28027 7.89896 7.9369 9.242 6.28027 9.24227C4.62342 9.24227 3.28027 7.89912 3.28027 6.24227C3.28037 4.5855 4.62348 3.24227 6.28027 3.24227ZM6.28027 5.24227C5.72805 5.24227 5.28037 5.69007 5.28027 6.24227C5.28027 6.79455 5.72799 7.24227 6.28027 7.24227C6.83233 7.242 7.28027 6.79439 7.28027 6.24227C7.28017 5.69023 6.83227 5.24253 6.28027 5.24227Z"/><path fill-rule="evenodd" clip-rule="evenodd" d="M6.27344 7.9215e-05C7.92797 0.00843569 9.51266 0.669989 10.6826 1.83992C11.8523 3.00978 12.513 4.59382 12.5215 6.24813C12.5298 7.90263 11.8856 9.49415 10.7275 10.6759L10.7197 10.6827L7.92969 13.4737C7.49212 13.9111 6.89801 14.1563 6.2793 14.1563C5.73805 14.1563 5.21586 13.969 4.80078 13.629L4.62988 13.4737L1.83887 10.6827C0.661412 9.50501 0 7.90761 0 6.24227C4.74698e-05 4.57692 0.661366 2.9795 1.83887 1.80184L1.84668 1.795C3.02834 0.637034 4.61901 -0.0082273 6.27344 7.9215e-05ZM6.26367 2.00008C5.13607 1.99438 4.05146 2.43447 3.24609 3.22371C2.44824 4.02559 2.00005 5.1108 2 6.24227C2 7.3773 2.45137 8.46599 3.25391 9.26863L6.04297 12.0587C6.1054 12.1211 6.19103 12.1562 6.2793 12.1563C6.3457 12.1563 6.41043 12.137 6.46484 12.1007L6.51562 12.0587L9.30566 9.26863C10.0904 8.4641 10.5271 7.38301 10.5215 6.25887C10.5158 5.1314 10.0657 4.0513 9.26855 3.25399C8.47123 2.45668 7.39122 2.00581 6.26367 2.00008Z"/></svg>