<svg class="svgicon svgicon-home" xmlns="http://www.w3.org/2000/svg" width="15" height="16" viewBox="0 0 15 16"><path fill-rule="evenodd" clip-rule="evenodd" d="M7.00827 0.119818C7.36639 -0.0665125 7.81 -0.0358996 8.14102 0.21432L14.5904 5.09197C14.846 5.28549 14.9999 5.58673 15 5.90974V13.5747C14.9999 14.2212 14.736 14.8397 14.2694 15.2936C13.8029 15.7471 13.1716 15.9999 12.5162 16H2.48383C1.82845 15.9999 1.19703 15.7471 0.730592 15.2936C0.264034 14.8397 0.00014155 14.2212 0 13.5747V5.90974C7.77494e-05 5.58675 0.153915 5.28551 0.409617 5.09197L6.85898 0.21432L6.87018 0.205899L6.88231 0.197478L6.98401 0.133853L6.99521 0.126367L7.00827 0.119818ZM2.1022 6.41687V13.5747C2.10234 13.6671 2.14036 13.7581 2.21044 13.8264L2.26829 13.8732C2.33092 13.9138 2.40598 13.9359 2.48383 13.9359H4.29864V7.99909C4.29901 7.41994 4.77959 6.9671 5.35021 6.96705H9.64979C10.2205 6.9671 10.701 7.41997 10.7014 7.99909V13.9359H12.5162L12.5927 13.9294C12.6675 13.9147 12.7361 13.8783 12.7896 13.8264L12.8362 13.7712C12.8763 13.7125 12.8977 13.644 12.8978 13.5747V6.41687L7.5 2.33268L2.1022 6.41687ZM6.40178 13.9359H8.59822V9.03207H6.40178V13.9359Z"/></svg>