<svg class="svgicon svgicon-session" xmlns="http://www.w3.org/2000/svg" width="18" height="19" viewBox="0 0 18 19"><path fill-rule="evenodd" clip-rule="evenodd" d="M13.2158 0C13.7681 2.62847e-05 14.2158 0.447731 14.2158 1V1.8584C15.1783 1.95449 16.0827 2.38204 16.7715 3.07422C17.5585 3.86522 17.9999 4.93725 18 6.05371V14.7842C17.9999 15.9006 17.5585 16.9727 16.7715 17.7637C15.9842 18.5548 14.9152 19 13.7998 19H4.2002C3.08477 19 2.01575 18.5548 1.22852 17.7637C0.441519 16.9727 0.000104261 15.9006 0 14.7842V6.05371C9.03194e-05 4.93725 0.441507 3.86522 1.22852 3.07422C1.91124 2.38814 2.80578 1.96236 3.75879 1.86133V1C3.75879 0.447715 4.2065 0 4.75879 0C5.311 8.67067e-05 5.75879 0.447769 5.75879 1V1.83789H12.2158V1C12.2158 0.447715 12.6635 0 13.2158 0ZM2 14.7842C2.0001 15.3734 2.23343 15.9374 2.64648 16.3525C3.05945 16.7675 3.6184 17 4.2002 17H13.7998C14.3816 17 14.9406 16.7675 15.3535 16.3525C15.7666 15.9374 15.9999 15.3734 16 14.7842V7.97266H2V14.7842ZM4.2002 3.83789C3.61839 3.83789 3.05945 4.07033 2.64648 4.48535C2.25242 4.88141 2.02433 5.41294 2.00391 5.97266H15.9961C15.9757 5.41294 15.7476 4.88141 15.3535 4.48535C14.9405 4.07033 14.3816 3.83789 13.7998 3.83789H4.2002Z"/></svg>