<svg class="svgicon svgicon-coach" xmlns="http://www.w3.org/2000/svg" width="16" height="12" viewBox="0 0 16 12"><path fill-rule="evenodd" clip-rule="evenodd" d="M5.88478 3.92103C6.54917 3.92118 7.18689 4.18578 7.65672 4.65624C7.89189 4.88826 8.07797 5.16478 8.20621 5.46944C8.33463 5.77463 8.40171 6.10295 8.40309 6.43413C8.4044 6.76514 8.34092 7.09383 8.21511 7.39993C8.08923 7.70603 7.90374 7.98455 7.67007 8.2187C7.43639 8.45278 7.15805 8.63836 6.8525 8.76454C6.54696 8.8906 6.21857 8.95509 5.88812 8.95391C5.55751 8.9526 5.22954 8.8852 4.92484 8.75674C4.62015 8.6282 4.34367 8.44016 4.11173 8.20422C3.64288 7.73374 3.37872 7.09554 3.3787 6.43079C3.37875 5.76523 3.6429 5.12687 4.11284 4.65624C4.58277 4.18578 5.2203 3.92105 5.88478 3.92103ZM5.34864 5.89386C5.20232 5.92292 5.45459 5.78559 5.34752 5.89274L5.34864 5.89386L5.50659 6.05761C5.45593 6.10661 5.41542 6.1655 5.38757 6.23027C5.35971 6.29522 5.3448 6.36567 5.34419 6.43636C5.34362 6.50692 5.35755 6.57713 5.38423 6.64244C5.41095 6.70766 5.45014 6.76748 5.49991 6.81733C5.54972 6.86711 5.60943 6.90649 5.67455 6.93318C5.73967 6.95979 5.80999 6.97387 5.88033 6.97329C5.95072 6.9726 6.02143 6.95767 6.08611 6.92984C6.15065 6.90195 6.20968 6.86129 6.25852 6.81065L6.26075 6.80731C6.36033 6.70752 6.41641 6.57187 6.41647 6.43079C6.41643 6.28989 6.36118 6.15404 6.26186 6.05427C6.16242 5.95462 6.02653 5.89863 5.88589 5.89831C5.74513 5.89826 5.60962 5.95478 5.50992 6.05427L5.34864 5.89386C5.20257 5.92336 5.45554 5.78705 5.34864 5.89386Z"/><path fill-rule="evenodd" clip-rule="evenodd" d="M1.53335 0.0845406C1.87702 -0.0152785 2.24085 -0.0270727 2.59006 0.0511217C2.93922 0.12947 3.26382 0.295355 3.5322 0.532354C3.74323 0.718871 3.91358 0.946397 4.03609 1.1985C4.94987 0.87495 5.93354 0.793591 6.88921 0.970141C7.78912 1.1365 8.63238 1.52338 9.34412 2.09302L9.64 2.34811L9.64334 2.35034L9.80018 2.50184L9.80463 2.50518L15.7111 8.42032C15.8808 8.59049 15.983 8.81748 15.9981 9.05751C16.0131 9.29764 15.9395 9.53574 15.7923 9.72589L15.7834 9.73703L15.7111 9.81835L14.1004 11.4314C13.9527 11.5794 13.7607 11.6763 13.5543 11.7087C13.3479 11.741 13.1361 11.7074 12.9503 11.6118L12.9358 11.604L12.8524 11.5528L12.8402 11.5461L10.3007 9.78493C9.49095 10.8629 8.31587 11.6124 6.99155 11.8859C5.5927 12.1745 4.13577 11.9109 2.92598 11.1506C1.71634 10.3902 0.846536 9.19133 0.497769 7.8043C0.167151 6.48926 0.329062 5.10124 0.948262 3.90098C0.735752 3.75929 0.548528 3.58047 0.398772 3.37185C0.203864 3.10007 0.0761377 2.78573 0.0250292 2.45505C-0.0260601 2.12428 0.00127013 1.78622 0.105117 1.46808C0.20901 1.15003 0.386056 0.860306 0.62235 0.623699C0.875607 0.370228 1.18949 0.184512 1.53335 0.0845406ZM5.88478 2.85719C4.93841 2.85721 4.03017 3.23313 3.3609 3.90321C2.99357 4.27189 2.71111 4.7171 2.53333 5.20654C2.35563 5.6959 2.28705 6.21836 2.332 6.73713C2.37704 7.25606 2.53531 7.75943 2.79473 8.2109C3.05411 8.66214 3.40845 9.05197 3.83364 9.3516C4.25897 9.65119 4.74561 9.85445 5.25743 9.94645C5.76913 10.0383 6.29533 10.0169 6.798 9.88407C7.30069 9.75119 7.76853 9.50948 8.16839 9.17671C8.56822 8.84385 8.89149 8.42759 9.11387 7.95692C9.17492 7.82736 9.26334 7.71244 9.37304 7.6205C9.48283 7.52865 9.61199 7.46167 9.75012 7.42444C9.88833 7.38731 10.034 7.37999 10.175 7.40439C10.3157 7.42888 10.4502 7.48354 10.5677 7.5648L13.2862 9.44963L13.6166 9.11878L8.40865 3.90321C7.73949 3.23313 6.83105 2.85734 5.88478 2.85719ZM2.06504 1.98273C2.0465 1.99033 2.02919 2.00201 2.01499 2.01615C2.00076 2.0304 1.98925 2.04764 1.98162 2.06628C1.97405 2.0849 1.97032 2.10522 1.97049 2.12532C1.97073 2.14525 1.97491 2.16492 1.98273 2.18325C1.99066 2.20167 2.0017 2.21943 2.0161 2.23337C2.04471 2.26088 2.08432 2.27605 2.12399 2.27571C2.16343 2.27508 2.20176 2.25909 2.22967 2.23115C2.25753 2.20309 2.27369 2.16489 2.27416 2.12532C2.2745 2.08581 2.25907 2.04698 2.23189 2.01838C2.218 2.00398 2.20018 1.99182 2.18184 1.98385C2.1637 1.97608 2.14371 1.97191 2.12399 1.97159C2.10412 1.97142 2.08348 1.97531 2.06504 1.98273Z"/></svg>