<svg class="svgicon svgicon-search" xmlns="http://www.w3.org/2000/svg" width="13" height="13" viewBox="0 0 13 13"><path d="M9.06948 9.06948C9.32332 8.81564 9.73468 8.81564 9.98852 9.06948L12.8096 11.8903C13.0635 12.1441 13.0635 12.5558 12.8096 12.8096C12.5558 13.0635 12.1441 13.0635 11.8903 12.8096L9.06948 9.98852C8.81564 9.73468 8.81564 9.32332 9.06948 9.06948Z"/><path d="M10.4 5.84995C10.3999 3.33712 8.36279 1.30017 5.84995 1.30017C3.33715 1.30022 1.30022 3.33715 1.30017 5.84995C1.30017 8.36279 3.33712 10.3999 5.84995 10.4C8.36282 10.4 10.4 8.36282 10.4 5.84995ZM11.6999 5.84995C11.6999 9.08078 9.08078 11.6999 5.84995 11.6999C2.61915 11.6998 0 9.08075 0 5.84995C4.9997e-05 2.61918 2.61918 4.99938e-05 5.84995 0C9.08075 0 11.6998 2.61915 11.6999 5.84995Z"/></svg>