<svg class="svgicon svgicon-close-popup" xmlns="http://www.w3.org/2000/svg" width="46" height="46" viewBox="0 0 46 46"><path d="M11 11H34V36H11V11Z" fill="white"/><path d="M22.9167 0C35.5735 0 45.8333 10.2598 45.8333 22.9167C45.8333 35.5735 35.5735 45.8333 22.9167 45.8333C10.2598 45.8333 0 35.5735 0 22.9167C0 10.2598 10.2598 0 22.9167 0ZM18.056 14.8133C17.6446 14.398 17.0899 14.1556 16.5056 14.1357C15.9213 14.1159 15.3515 14.3202 14.9128 14.7067C14.4742 15.0932 14.1998 15.6328 14.146 16.215C14.0921 16.7971 14.2628 17.3779 14.6231 17.8383L14.8156 18.056L19.674 22.9144L14.8156 27.7773C14.4003 28.1887 14.1578 28.7434 14.138 29.3277C14.1182 29.912 14.3225 30.4818 14.709 30.9205C15.0955 31.3592 15.6351 31.6335 16.2173 31.6873C16.7994 31.7412 17.3802 31.5705 17.8406 31.2102L18.056 31.02L22.9167 26.1571L27.7773 31.02C28.1887 31.4354 28.7434 31.6778 29.3277 31.6976C29.912 31.7174 30.4818 31.5132 30.9205 31.1266C31.3592 30.7401 31.6335 30.2005 31.6873 29.6184C31.7412 29.0362 31.5705 28.4554 31.2102 27.995L31.02 27.7773L26.1571 22.9167L31.02 18.056C31.4354 17.6446 31.6778 17.0899 31.6976 16.5056C31.7174 15.9213 31.5132 15.3515 31.1266 14.9128C30.7401 14.4742 30.2005 14.1998 29.6184 14.146C29.0362 14.0921 28.4554 14.2628 27.995 14.6231L27.7773 14.8133L22.9167 19.6763L18.056 14.8133Z"/></svg>