<svg class="svgicon svgicon-phone" xmlns="http://www.w3.org/2000/svg" width="21" height="22" viewBox="0 0 21 22"><path d="M3 0.775391C1.34531 0.775391 0 2.1207 0 3.77539V18.7754C0 20.4301 1.34531 21.7754 3 21.7754H18C19.6547 21.7754 21 20.4301 21 18.7754V3.77539C21 2.1207 19.6547 0.775391 18 0.775391H3ZM7.125 5.3082C7.58437 5.18164 8.06719 5.4207 8.25 5.86133L9.20156 8.14414C9.36094 8.5332 9.25312 8.97852 8.925 9.2457L7.88906 10.0895C8.64844 11.7676 9.975 13.1363 11.6203 13.952L12.525 12.8457C12.7922 12.5223 13.2375 12.4098 13.6266 12.5691L15.9094 13.5207C16.35 13.7035 16.5844 14.1863 16.4625 14.6457L16.425 14.777C16.0125 16.291 14.5453 17.5848 12.7594 17.2051C8.65781 16.3379 5.43281 13.1082 4.56094 9.00664C4.18125 7.2207 5.475 5.75352 6.98906 5.34102L7.12031 5.30352L7.125 5.3082Z"/></svg>