<svg class="svgicon svgicon-email" xmlns="http://www.w3.org/2000/svg" width="21" height="22" viewBox="0 0 21 22"><path d="M17.4996 0.775391H3.50044C2.57292 0.77816 1.68417 1.14784 1.02831 1.8037C0.372454 2.45956 0.00276977 3.34831 0 4.27583L0 18.275C0 20.2004 1.575 21.7754 3.50044 21.7754H17.4996C19.4263 21.7754 21 20.2004 21 18.275V4.27583C20.9976 3.3482 20.628 2.45926 19.9721 1.80332C19.3161 1.14739 18.4272 0.777816 17.4996 0.775391ZM5.25 6.02539H15.75C15.9377 6.02539 16.1188 6.06608 16.2868 6.14089L10.5 12.8911L4.71319 6.14089C4.88175 6.06428 5.06484 6.02489 5.25 6.02539ZM3.9375 15.2129V7.33789L3.94013 7.2552L7.78837 11.7453L3.98212 15.5515C3.95206 15.4412 3.93705 15.3273 3.9375 15.2129ZM15.75 16.5254H5.25C5.1345 16.5254 5.02031 16.5096 4.91138 16.4808L8.64675 12.7454L10.5013 14.9084L12.3559 12.7454L16.0912 16.4808C15.9809 16.5108 15.867 16.5258 15.7526 16.5254H15.75ZM17.0625 15.2129C17.0625 15.3284 17.0467 15.4426 17.0179 15.5515L13.2116 11.7453L17.0599 7.2552L17.0625 7.33789V15.2129Z"/></svg>