<svg class="svgicon svgicon-down" xmlns="http://www.w3.org/2000/svg" width="14" height="8" viewBox="0 0 14 8"><path d="M13.0839 0.749859C13.2599 0.752989 13.4272 0.823057 13.5512 0.943996C13.6753 1.06504 13.7466 1.2283 13.7497 1.39881C13.7526 1.5691 13.6875 1.73399 13.5682 1.85909L13.5625 1.86547L7.72935 7.55562C7.60234 7.67922 7.42985 7.74976 7.24976 7.74976C7.06969 7.74974 6.89715 7.68012 6.77016 7.55653L0.936988 1.86547L0.931346 1.86C0.81202 1.73492 0.74689 1.56906 0.749853 1.39881C0.75296 1.2283 0.824211 1.06504 0.948273 0.943996C1.07229 0.823029 1.23965 0.753008 1.41564 0.749859C1.5917 0.746828 1.7621 0.810964 1.89053 0.92759L1.89712 0.933059L7.24976 6.15382L12.6024 0.933059L12.608 0.92759C12.7365 0.810934 12.9078 0.746847 13.0839 0.749859Z"/></svg>