<svg class="svgicon svgicon-download" xmlns="http://www.w3.org/2000/svg" width="16" height="16" viewBox="0 0 16 16"><path d="M7.99999 11.575C7.86666 11.575 7.74166 11.5543 7.62499 11.513C7.50833 11.4717 7.39999 11.4007 7.29999 11.3L3.7 7.7C3.5 7.5 3.404 7.26667 3.412 7C3.42 6.73333 3.516 6.5 3.7 6.3C3.9 6.1 4.13766 5.996 4.413 5.988C4.68833 5.98 4.92566 6.07567 5.125 6.275L6.99999 8.15V1C6.99999 0.71667 7.09599 0.479337 7.28799 0.288003C7.47999 0.0966702 7.71733 0.000670115 7.99999 3.44827e-06C8.28266 -0.000663218 8.52033 0.0953369 8.71299 0.288003C8.90566 0.48067 9.00133 0.718003 8.99999 1V8.15L10.875 6.275C11.075 6.075 11.3127 5.979 11.588 5.987C11.8633 5.995 12.1007 6.09933 12.3 6.3C12.4833 6.5 12.5793 6.73333 12.588 7C12.5967 7.26667 12.5007 7.5 12.3 7.7L8.69999 11.3C8.59999 11.4 8.49166 11.471 8.37499 11.513C8.25833 11.555 8.13333 11.5757 7.99999 11.575ZM2 16C1.45 16 0.979332 15.8043 0.587999 15.413C0.196666 15.0217 0.000666666 14.5507 0 14V12C0 11.7167 0.096 11.4793 0.288 11.288C0.48 11.0967 0.717333 11.0007 0.999999 11C1.28267 10.9993 1.52033 11.0953 1.713 11.288C1.90566 11.4807 2.00133 11.718 2 12V14H14V12C14 11.7167 14.096 11.4793 14.288 11.288C14.48 11.0967 14.7173 11.0007 15 11C15.2827 10.9993 15.5203 11.0953 15.713 11.288C15.9057 11.4807 16.0013 11.718 16 12V14C16 14.55 15.8043 15.021 15.413 15.413C15.0217 15.805 14.5507 16.0007 14 16H2Z"/></svg>