<svg class="svgicon svgicon-fancy-arrow" xmlns="http://www.w3.org/2000/svg" width="72" height="92" viewBox="0 0 72 92"><path d="M45.8099 35.8902C45.7299 48.8902 45.1199 62.2002 49.6199 74.5902C52.1399 74.2902 53.8999 70.1402 56.0299 73.6702C56.8399 75.0202 61.2099 86.7902 61.4799 88.3302C61.8799 90.5902 60.3299 91.7602 58.2099 91.1202C54.2299 87.8002 47.6599 85.9702 43.7199 83.1202C38.3999 79.2702 46.3999 78.5602 46.7199 77.1702C46.8199 76.7502 45.5999 74.7302 45.3499 73.8402C41.9199 61.6702 41.2599 48.9502 41.4999 36.3502C26.1099 35.6402 6.4199 26.9202 1.3999 11.2202C0.899904 9.66016 -0.810095 2.35016 0.459905 1.50016C3.8699 0.800163 3.55991 6.47016 4.48991 9.09016C9.51991 23.3602 27.2899 32.8902 41.9799 32.0402C43.2099 22.5202 43.7099 1.79016 56.1999 0.140164C66.2299 -1.17984 72.1799 7.02016 71.0799 16.4502C69.8599 26.8702 55.3899 34.8702 45.8299 35.8802L45.8099 35.8902ZM46.2599 31.5702C55.8899 30.9202 71.0399 20.7202 66.5599 9.58016C64.8799 5.39016 58.1799 2.81016 54.1999 4.86016C48.2499 7.92016 46.3099 25.3702 46.2599 31.5702Z"/></svg>