<svg class="svgicon svgicon-filter" xmlns="http://www.w3.org/2000/svg" width="21" height="19" viewBox="0 0 21 19"><path d="M11.4814 9.125V17.75C11.4814 18.0484 11.3629 18.3345 11.1519 18.5455C10.941 18.7565 10.6548 18.875 10.3564 18.875C10.0581 18.875 9.77193 18.7565 9.56095 18.5455C9.34997 18.3345 9.23145 18.0484 9.23145 17.75V9.125C9.23145 8.82663 9.34997 8.54048 9.56095 8.3295C9.77193 8.11853 10.0581 8 10.3564 8C10.6548 8 10.941 8.11853 11.1519 8.3295C11.3629 8.54048 11.4814 8.82663 11.4814 9.125ZM17.1064 15.5C16.8081 15.5 16.5219 15.6185 16.311 15.8295C16.1 16.0405 15.9814 16.3266 15.9814 16.625V17.75C15.9814 18.0484 16.1 18.3345 16.311 18.5455C16.5219 18.7565 16.8081 18.875 17.1064 18.875C17.4048 18.875 17.691 18.7565 17.9019 18.5455C18.1129 18.3345 18.2314 18.0484 18.2314 17.75V16.625C18.2314 16.3266 18.1129 16.0405 17.9019 15.8295C17.691 15.6185 17.4048 15.5 17.1064 15.5ZM19.3564 11.75H18.2314V1.25C18.2314 0.951631 18.1129 0.665483 17.9019 0.454505C17.691 0.243526 17.4048 0.125 17.1064 0.125C16.8081 0.125 16.5219 0.243526 16.311 0.454505C16.1 0.665483 15.9814 0.951631 15.9814 1.25V11.75H14.8564C14.5581 11.75 14.2719 11.8685 14.061 12.0795C13.85 12.2905 13.7314 12.5766 13.7314 12.875C13.7314 13.1734 13.85 13.4595 14.061 13.6705C14.2719 13.8815 14.5581 14 14.8564 14H19.3564C19.6548 14 19.941 13.8815 20.1519 13.6705C20.3629 13.4595 20.4814 13.1734 20.4814 12.875C20.4814 12.5766 20.3629 12.2905 20.1519 12.0795C19.941 11.8685 19.6548 11.75 19.3564 11.75ZM3.60645 12.5C3.30808 12.5 3.02193 12.6185 2.81095 12.8295C2.59997 13.0405 2.48145 13.3266 2.48145 13.625V17.75C2.48145 18.0484 2.59997 18.3345 2.81095 18.5455C3.02193 18.7565 3.30808 18.875 3.60645 18.875C3.90481 18.875 4.19096 18.7565 4.40194 18.5455C4.61292 18.3345 4.73145 18.0484 4.73145 17.75V13.625C4.73145 13.3266 4.61292 13.0405 4.40194 12.8295C4.19096 12.6185 3.90481 12.5 3.60645 12.5ZM5.85645 8.75H4.73145V1.25C4.73145 0.951631 4.61292 0.665483 4.40194 0.454505C4.19096 0.243526 3.90481 0.125 3.60645 0.125C3.30808 0.125 3.02193 0.243526 2.81095 0.454505C2.59997 0.665483 2.48145 0.951631 2.48145 1.25V8.75H1.35645C1.05808 8.75 0.771929 8.86853 0.56095 9.0795C0.349972 9.29048 0.231445 9.57663 0.231445 9.875C0.231445 10.1734 0.349972 10.4595 0.56095 10.6705C0.771929 10.8815 1.05808 11 1.35645 11H5.85645C6.15481 11 6.44096 10.8815 6.65194 10.6705C6.86292 10.4595 6.98145 10.1734 6.98145 9.875C6.98145 9.57663 6.86292 9.29048 6.65194 9.0795C6.44096 8.86853 6.15481 8.75 5.85645 8.75ZM12.6064 4.25H11.4814V1.25C11.4814 0.951631 11.3629 0.665483 11.1519 0.454505C10.941 0.243526 10.6548 0.125 10.3564 0.125C10.0581 0.125 9.77193 0.243526 9.56095 0.454505C9.34997 0.665483 9.23145 0.951631 9.23145 1.25V4.25H8.10645C7.80808 4.25 7.52193 4.36853 7.31095 4.5795C7.09997 4.79048 6.98145 5.07663 6.98145 5.375C6.98145 5.67337 7.09997 5.95952 7.31095 6.1705C7.52193 6.38147 7.80808 6.5 8.10645 6.5H12.6064C12.9048 6.5 13.191 6.38147 13.4019 6.1705C13.6129 5.95952 13.7314 5.67337 13.7314 5.375C13.7314 5.07663 13.6129 4.79048 13.4019 4.5795C13.191 4.36853 12.9048 4.25 12.6064 4.25Z"/></svg>