<svg fill=none height=55 viewBox="0 0 55 55"width=55 xmlns=http://www.w3.org/2000/svg><path d="M1.16458 27.1708C1.1633 31.7919 2.37074 36.304 4.66667 40.2811L0.945007 53.8695L14.8511 50.2233C18.6973 52.3171 23.0067 53.4143 27.3859 53.4146H27.3974C41.8541 53.4146 53.6222 41.6508 53.6284 27.1915C53.6312 20.185 50.905 13.5965 45.9521 8.63969C40.9999 3.68329 34.4138 0.952264 27.3964 0.949066C12.938 0.949066 1.17055 12.7122 1.16458 27.1708Z"fill=url(#paint0_linear_2333_297) /><path d="M0.228101 27.1623C0.226609 31.9497 1.47733 36.6232 3.85512 40.7426L0 54.8182L14.4047 51.0413C18.3736 53.2052 22.8423 54.3462 27.3894 54.3479H27.4011C42.3764 54.3479 54.5672 42.1609 54.5736 27.1841C54.5762 19.9258 51.752 13.1004 46.6221 7.96605C41.4915 2.83229 34.6698 0.0029845 27.4011 0C12.4232 0 0.23407 12.1853 0.228101 27.1623ZM8.80661 40.0332L8.26876 39.1794C6.00779 35.5844 4.81442 31.4299 4.81612 27.164C4.82081 14.7155 14.9519 4.5876 27.4096 4.5876C33.4426 4.59016 39.1122 6.94194 43.3767 11.2089C47.6409 15.4763 49.9873 21.149 49.9858 27.1824C49.9803 39.6309 39.849 49.7601 27.4011 49.7601H27.3921C23.339 49.7579 19.3638 48.6695 15.8971 46.6125L15.0721 46.1233L6.52411 48.3644L8.80661 40.0332Z"fill=url(#paint1_linear_2333_297) /><path d="M20.6096 15.8067C20.101 14.6763 19.5657 14.6535 19.082 14.6336C18.6859 14.6166 18.2331 14.6179 17.7808 14.6179C17.328 14.6179 16.5923 14.7882 15.9704 15.4672C15.348 16.1468 13.5939 17.7891 13.5939 21.1294C13.5939 24.4697 16.0269 27.698 16.3661 28.1515C16.7057 28.6041 21.0631 35.6782 27.9641 38.3996C33.6994 40.6612 34.8666 40.2114 36.1113 40.098C37.3563 39.985 40.1284 38.4561 40.694 36.8707C41.26 35.2855 41.26 33.9267 41.0903 33.6427C40.9206 33.3598 40.4678 33.1899 39.7889 32.8506C39.1099 32.5112 35.7717 30.8684 35.1495 30.6418C34.527 30.4154 34.0744 30.3024 33.6216 30.9823C33.1688 31.661 31.8686 33.1899 31.4723 33.6427C31.0765 34.0966 30.6802 34.1531 30.0014 33.8135C29.322 33.4728 27.1354 32.7568 24.5413 30.444C22.5229 28.6443 21.1603 26.422 20.7642 25.7421C20.3681 25.0634 20.7218 24.6954 21.0622 24.3571C21.3673 24.0529 21.7414 23.5643 22.0812 23.168C22.4197 22.7715 22.5327 22.4886 22.7591 22.0358C22.9857 21.5826 22.8723 21.1861 22.7028 20.8465C22.5327 20.5069 21.2134 17.1491 20.6096 15.8067Z"fill=white /><defs><linearGradient gradientUnits=userSpaceOnUse id=paint0_linear_2333_297 x1=2728.68 x2=2728.68 y1=5481.82 y2=0><stop stop-color=#1FAF38 /><stop stop-color=#60D669 offset=1 /></linearGradient><linearGradient gradientUnits=userSpaceOnUse id=paint1_linear_2333_297 x1=2728.68 x2=2728.68 y1=5481.82 y2=0><stop stop-color=#F9F9F9 /><stop stop-color=white offset=1 /></linearGradient></defs></svg>