<svg class="svgicon svgicon-outline-whatsapp" xmlns="http://www.w3.org/2000/svg" width="24" height="25" viewBox="0 0 24 25"><path d="M0 24.0962L1.687 17.9332C0.646 16.1292 0.099 14.0842 0.1 11.9872C0.103 5.43119 5.438 0.0961914 11.993 0.0961914C15.174 0.0971914 18.16 1.33619 20.406 3.58419C22.651 5.83219 23.887 8.82019 23.886 11.9982C23.883 18.5552 18.548 23.8902 11.993 23.8902C10.003 23.8892 8.042 23.3902 6.305 22.4422L0 24.0962ZM6.597 20.2892C8.273 21.2842 9.873 21.8802 11.989 21.8812C17.437 21.8812 21.875 17.4472 21.878 11.9962C21.88 6.53419 17.463 2.10619 11.997 2.10419C6.545 2.10419 2.11 6.53819 2.108 11.9882C2.107 14.2132 2.759 15.8792 3.854 17.6222L2.855 21.2702L6.597 20.2892ZM17.984 14.8252C17.91 14.7012 17.712 14.6272 17.414 14.4782C17.117 14.3292 15.656 13.6102 15.383 13.5112C15.111 13.4122 14.913 13.3622 14.714 13.6602C14.516 13.9572 13.946 14.6272 13.773 14.8252C13.6 15.0232 13.426 15.0482 13.129 14.8992C12.832 14.7502 11.874 14.4372 10.739 13.4242C9.856 12.6362 9.259 11.6632 9.086 11.3652C8.913 11.0682 9.068 10.9072 9.216 10.7592C9.35 10.6262 9.513 10.4122 9.662 10.2382C9.813 10.0662 9.862 9.94219 9.962 9.74319C10.061 9.54519 10.012 9.37119 9.937 9.22219C9.862 9.07419 9.268 7.61119 9.021 7.01619C8.779 6.43719 8.534 6.51519 8.352 6.50619L7.782 6.49619C7.584 6.49619 7.262 6.57019 6.99 6.86819C6.718 7.16619 5.95 7.88419 5.95 9.34719C5.95 10.8102 7.015 12.2232 7.163 12.4212C7.312 12.6192 9.258 15.6212 12.239 16.9082C12.948 17.2142 13.502 17.3972 13.933 17.5342C14.645 17.7602 15.293 17.7282 15.805 17.6522C16.376 17.5672 17.563 16.9332 17.811 16.2392C18.059 15.5442 18.059 14.9492 17.984 14.8252Z"/></svg>