<svg class="svgicon svgicon-outline-linkedin" xmlns="http://www.w3.org/2000/svg" width="22" height="22" viewBox="0 0 22 22"><path fill-rule="evenodd" clip-rule="evenodd" d="M3 2.09619C2.44772 2.09619 2 2.54391 2 3.09619C2 3.64848 2.44772 4.09619 3 4.09619C3.55228 4.09619 4 3.64848 4 3.09619C4 2.54391 3.55228 2.09619 3 2.09619ZM0 3.09619C0 1.43934 1.34315 0.0961914 3 0.0961914C4.65685 0.0961914 6 1.43934 6 3.09619C6 4.75305 4.65685 6.09619 3 6.09619C1.34315 6.09619 0 4.75305 0 3.09619ZM15 8.09619C13.6739 8.09619 12.4021 8.62298 11.4645 9.56066C10.5268 10.4983 10 11.7701 10 13.0962V19.0962H12V13.0962C12 12.3005 12.3161 11.5375 12.8787 10.9749C13.4413 10.4123 14.2043 10.0962 15 10.0962C15.7957 10.0962 16.5587 10.4123 17.1213 10.9749C17.6839 11.5375 18 12.3005 18 13.0962V19.0962H20V13.0962C20 11.7701 19.4732 10.4983 18.5355 9.56066C17.5979 8.62298 16.3261 8.09619 15 8.09619ZM10.0503 8.14644C11.363 6.83369 13.1435 6.09619 15 6.09619C16.8565 6.09619 18.637 6.83369 19.9497 8.14644C21.2625 9.4592 22 11.2397 22 13.0962V20.0962C22 20.6485 21.5523 21.0962 21 21.0962H17C16.4477 21.0962 16 20.6485 16 20.0962V13.0962C16 12.831 15.8946 12.5766 15.7071 12.3891C15.5196 12.2015 15.2652 12.0962 15 12.0962C14.7348 12.0962 14.4804 12.2015 14.2929 12.3891C14.1054 12.5766 14 12.831 14 13.0962V20.0962C14 20.6485 13.5523 21.0962 13 21.0962H9C8.44772 21.0962 8 20.6485 8 20.0962V13.0962C8 11.2397 8.7375 9.4592 10.0503 8.14644ZM0 8.09619C0 7.54391 0.447715 7.09619 1 7.09619H5C5.55228 7.09619 6 7.54391 6 8.09619V20.0962C6 20.6485 5.55228 21.0962 5 21.0962H1C0.447715 21.0962 0 20.6485 0 20.0962V8.09619ZM2 9.09619V19.0962H4V9.09619H2Z"/></svg>