<svg class="svgicon svgicon-outline-mail" xmlns="http://www.w3.org/2000/svg" width="60" height="55" viewBox="0 0 60 55"><path d="M45.8398 0.0185547C53.3938 0.401435 59.4011 6.64788 59.4014 14.2969V40.7041L59.3828 41.4395C59.0122 48.7497 53.1502 54.611 45.8398 54.9814L45.1055 55H14.2969C6.648 54.9998 0.401873 48.9936 0.0185547 41.4395L0.0175781 41.4229L0 40.7197V14.2969C0.000242651 6.40127 6.40127 0.000242665 14.2969 0H45.1055L45.8398 0.0185547ZM36.7871 28.8936C34.7605 30.0695 32.4749 30.7245 30.1377 30.8018L29.6699 30.8086C27.1705 30.8085 24.7145 30.1479 22.5527 28.8936C22.548 28.8907 22.5438 28.8867 22.5391 28.8838L5.12109 18.9014V40.6875L5.13281 41.1914C5.38615 46.0316 9.39313 49.8787 14.2969 49.8789H45.1055L45.5781 49.8662C50.4254 49.6198 54.28 45.6126 54.2803 40.7041V18.8936L36.7871 28.8936ZM14.2969 5.12109C9.65399 5.12132 5.81767 8.57122 5.20801 13.0469L25.1104 24.4561H25.1113L25.1201 24.4609L25.124 24.4639C26.505 25.2651 28.0736 25.6874 29.6699 25.6875L29.9688 25.6826C31.4615 25.6332 32.9212 25.215 34.2158 24.4639C34.2202 24.4612 34.225 24.4586 34.2295 24.4561L54.1914 13.043C53.5998 8.71298 49.9893 5.34515 45.5498 5.13281L45.1055 5.12109H14.2969Z"/></svg>