<svg class="svgicon svgicon-outline-ig" xmlns="http://www.w3.org/2000/svg" width="55" height="55" viewBox="0 0 55 55"><path d="M42.185 9.515C41.5323 9.515 40.8943 9.70854 40.3516 10.0712C39.8089 10.4338 39.386 10.9491 39.1362 11.5521C38.8864 12.1551 38.8211 12.8187 38.9484 13.4588C39.0757 14.0989 39.39 14.6869 39.8515 15.1485C40.3131 15.61 40.9011 15.9243 41.5412 16.0516C42.1813 16.1789 42.8449 16.1136 43.4479 15.8638C44.0509 15.614 44.5662 15.1911 44.9288 14.6484C45.2915 14.1057 45.485 13.4677 45.485 12.815C45.485 11.9398 45.1373 11.1004 44.5185 10.4815C43.8996 9.86268 43.0602 9.515 42.185 9.515ZM54.835 16.17C54.781 13.8884 54.3537 11.631 53.57 9.4875C52.8739 7.65201 51.7852 5.99077 50.38 4.62C49.0183 3.21042 47.3538 2.12899 45.5125 1.4575C43.3748 0.649442 41.1148 0.212327 38.83 0.165C35.915 -1.60933e-07 34.98 0 27.5 0C20.02 0 19.085 -1.60933e-07 16.17 0.165C13.8852 0.212327 11.6252 0.649442 9.4875 1.4575C7.65044 2.13744 5.98775 3.21773 4.62 4.62C3.21042 5.98174 2.12899 7.64621 1.4575 9.4875C0.649442 11.6252 0.212327 13.8852 0.165 16.17C-1.60933e-07 19.085 0 20.02 0 27.5C0 34.98 -1.60933e-07 35.915 0.165 38.83C0.212327 41.1148 0.649442 43.3748 1.4575 45.5125C2.12899 47.3538 3.21042 49.0183 4.62 50.38C5.98775 51.7823 7.65044 52.8626 9.4875 53.5425C11.6252 54.3506 13.8852 54.7877 16.17 54.835C19.085 55 20.02 55 27.5 55C34.98 55 35.915 55 38.83 54.835C41.1148 54.7877 43.3748 54.3506 45.5125 53.5425C47.3538 52.871 49.0183 51.7896 50.38 50.38C51.7887 49.0121 52.8779 47.35 53.57 45.5125C54.3537 43.369 54.781 41.1116 54.835 38.83C54.835 35.915 55 34.98 55 27.5C55 20.02 55 19.085 54.835 16.17ZM49.885 38.5C49.8655 40.2457 49.5493 41.9753 48.95 43.615C48.5109 44.8118 47.8057 45.8932 46.8875 46.7775C45.995 47.6857 44.916 48.3894 43.725 48.84C42.0853 49.4393 40.3557 49.7555 38.61 49.775C35.86 49.9125 34.8425 49.94 27.61 49.94C20.3775 49.94 19.36 49.94 16.61 49.775C14.7973 49.8106 12.9922 49.5315 11.275 48.95C10.137 48.4752 9.10774 47.7734 8.25 46.8875C7.33724 46.0041 6.64082 44.9218 6.215 43.725C5.54137 42.0623 5.1689 40.2931 5.115 38.5C5.115 35.75 4.95 34.7325 4.95 27.5C4.95 20.2675 4.95 19.25 5.115 16.5C5.12503 14.7152 5.45089 12.9462 6.0775 11.275C6.56163 10.1143 7.30473 9.07956 8.25 8.25C9.08304 7.30177 10.1162 6.55036 11.275 6.05C12.9508 5.44357 14.7178 5.12737 16.5 5.115C19.25 5.115 20.2675 4.95 27.5 4.95C34.7325 4.95 35.75 4.95 38.5 5.115C40.2457 5.13449 41.9753 5.45066 43.615 6.05C44.8647 6.51379 45.9863 7.26783 46.8875 8.25C47.786 9.09706 48.4897 10.1292 48.95 11.275C49.5617 12.9494 49.8781 14.7173 49.885 16.5C50.0225 19.25 50.05 20.2675 50.05 27.5C50.05 34.7325 50.0225 35.75 49.885 38.5ZM27.5 13.3925C24.711 13.3979 21.9861 14.2299 19.6698 15.7834C17.3535 17.3369 15.5495 19.542 14.486 22.1203C13.4224 24.6986 13.147 27.5343 13.6944 30.2691C14.2419 33.0038 15.5876 35.515 17.5617 37.4852C19.5358 39.4554 22.0495 40.7963 24.7854 41.3384C27.5212 41.8805 30.3563 41.5995 32.9325 40.531C35.5087 39.4624 37.7104 37.6542 39.2594 35.3348C40.8083 33.0155 41.635 30.289 41.635 27.5C41.6386 25.644 41.2753 23.8057 40.5659 22.0906C39.8565 20.3756 38.815 18.8177 37.5014 17.5066C36.1877 16.1956 34.6279 15.1571 32.9114 14.4511C31.195 13.745 29.356 13.3852 27.5 13.3925ZM27.5 36.6575C25.6888 36.6575 23.9183 36.1204 22.4124 35.1142C20.9064 34.1079 19.7327 32.6777 19.0396 31.0044C18.3465 29.3311 18.1651 27.4898 18.5185 25.7135C18.8718 23.9371 19.744 22.3054 21.0247 21.0247C22.3054 19.744 23.9371 18.8718 25.7135 18.5185C27.4898 18.1651 29.3311 18.3465 31.0044 19.0396C32.6777 19.7327 34.1079 20.9064 35.1142 22.4124C36.1204 23.9183 36.6575 25.6888 36.6575 27.5C36.6575 28.7026 36.4206 29.8934 35.9604 31.0044C35.5002 32.1155 34.8257 33.125 33.9753 33.9753C33.125 34.8257 32.1155 35.5002 31.0044 35.9604C29.8934 36.4206 28.7026 36.6575 27.5 36.6575Z"/></svg>