<svg class="svgicon svgicon-outline-wa" xmlns="http://www.w3.org/2000/svg" width="55" height="55" viewBox="0 0 55 55"><path d="M46.9849 8.00263C44.4507 5.45642 41.4325 3.43755 38.1062 2.06364C34.7799 0.689732 31.212 -0.0117237 27.6106 0.000148211C12.5201 0.000148211 0.221106 12.2376 0.221106 27.2526C0.221106 32.0651 1.49246 36.7401 3.86935 40.865L0 55L14.51 51.205C18.5176 53.3775 23.0226 54.5325 27.6106 54.5325C42.701 54.5325 55 42.295 55 27.2801C55 19.9926 52.1533 13.1451 46.9849 8.00263ZM27.6106 49.9125C23.5201 49.9125 19.5126 48.8125 16.0025 46.75L15.1734 46.255L6.55025 48.51L8.84422 40.15L8.29146 39.2975C6.01835 35.687 4.8116 31.5131 4.80905 27.2526C4.80905 14.7676 15.0352 4.59264 27.5829 4.59264C33.6633 4.59264 39.3844 6.95763 43.6683 11.2476C45.7899 13.3482 47.4711 15.8471 48.6145 18.5993C49.7579 21.3514 50.3407 24.3021 50.3291 27.2801C50.3844 39.765 40.1583 49.9125 27.6106 49.9125ZM40.103 32.9726C39.4121 32.6426 36.0402 30.9926 35.4322 30.7451C34.7965 30.5251 34.3543 30.4151 33.8844 31.0751C33.4146 31.7626 32.1156 33.3026 31.7286 33.7426C31.3417 34.2101 30.9271 34.2651 30.2362 33.9076C29.5452 33.5776 27.3342 32.8351 24.7362 30.5251C22.691 28.7101 21.3367 26.4826 20.9221 25.7951C20.5352 25.1076 20.8668 24.7501 21.2261 24.3926C21.5301 24.0901 21.9171 23.5951 22.2487 23.2101C22.5804 22.8251 22.7186 22.5226 22.9397 22.0826C23.1608 21.6151 23.0502 21.2301 22.8844 20.9001C22.7186 20.5701 21.3367 17.2151 20.7839 15.8401C20.2312 14.5201 19.6508 14.6851 19.2362 14.6576H17.9095C17.4397 14.6576 16.7211 14.8226 16.0854 15.5101C15.4774 16.1976 13.7085 17.8476 13.7085 21.2026C13.7085 24.5576 16.1683 27.8026 16.5 28.2426C16.8317 28.7101 21.3367 35.5851 28.191 38.5275C29.8216 39.2425 31.093 39.655 32.0879 39.9575C33.7186 40.48 35.2111 40.3975 36.3995 40.2325C37.7261 40.04 40.4623 38.5825 41.0151 36.9875C41.5955 35.3926 41.5955 34.0451 41.402 33.7426C41.2085 33.4401 40.794 33.3026 40.103 32.9726Z"/></svg>