<svg class="svgicon svgicon-outline-facebook" xmlns="http://www.w3.org/2000/svg" width="13" height="23" viewBox="0 0 13 23"><path fill-rule="evenodd" clip-rule="evenodd" d="M4.75736 1.85355C5.88258 0.728332 7.4087 0.0961914 9 0.0961914H12C12.5523 0.0961914 13 0.543907 13 1.09619V5.09619C13 5.64848 12.5523 6.09619 12 6.09619H9V8.09619H12C12.3079 8.09619 12.5987 8.23806 12.7882 8.48078C12.9777 8.7235 13.0448 9.03999 12.9701 9.33873L11.9701 13.3387C11.8589 13.7839 11.4589 14.0962 11 14.0962H9V21.0962C9 21.6485 8.55228 22.0962 8 22.0962H4C3.44772 22.0962 3 21.6485 3 21.0962V14.0962H1C0.447715 14.0962 0 13.6485 0 13.0962V9.09619C0 8.54391 0.447715 8.09619 1 8.09619H3V6.09619C3 4.50489 3.63214 2.97877 4.75736 1.85355ZM9 2.09619C7.93913 2.09619 6.92172 2.51762 6.17157 3.26776C5.42143 4.01791 5 5.03533 5 6.09619V9.09619C5 9.64848 4.55228 10.0962 4 10.0962H2V12.0962H4C4.55228 12.0962 5 12.5439 5 13.0962V20.0962H7V13.0962C7 12.5439 7.44772 12.0962 8 12.0962H10.2192L10.7192 10.0962H8C7.44772 10.0962 7 9.64848 7 9.09619V6.09619C7 5.56576 7.21071 5.05705 7.58579 4.68198C7.96086 4.30691 8.46957 4.09619 9 4.09619H11V2.09619H9Z"/></svg>