<svg class="svgicon svgicon-outline-instagram" xmlns="http://www.w3.org/2000/svg" width="22" height="23" viewBox="0 0 22 23"><path fill-rule="evenodd" clip-rule="evenodd" d="M6 2.09619C3.79086 2.09619 2 3.88705 2 6.09619V16.0962C2 18.3053 3.79086 20.0962 6 20.0962H16C18.2091 20.0962 20 18.3053 20 16.0962V6.09619C20 3.88705 18.2091 2.09619 16 2.09619H6ZM0 6.09619C0 2.78248 2.68629 0.0961914 6 0.0961914H16C19.3137 0.0961914 22 2.78248 22 6.09619V16.0962C22 19.4099 19.3137 22.0962 16 22.0962H6C2.68629 22.0962 0 19.4099 0 16.0962V6.09619ZM15.5 5.59619C15.5 5.04391 15.9477 4.59619 16.5 4.59619H16.51C17.0623 4.59619 17.51 5.04391 17.51 5.59619C17.51 6.14848 17.0623 6.59619 16.51 6.59619H16.5C15.9477 6.59619 15.5 6.14848 15.5 5.59619ZM11.4833 8.08537C10.8591 7.99282 10.2217 8.09943 9.66156 8.39006C9.10146 8.68068 8.64726 9.14052 8.36356 9.70415C8.07987 10.2678 7.98112 10.9065 8.08137 11.5295C8.18162 12.1525 8.47575 12.7281 8.92195 13.1742C9.36814 13.6204 9.94366 13.9146 10.5667 14.0148C11.1897 14.1151 11.8284 14.0163 12.392 13.7326C12.9557 13.4489 13.4155 12.9947 13.7061 12.4346C13.9968 11.8745 14.1034 11.2371 14.0108 10.6129C13.9164 9.97618 13.6197 9.38674 13.1646 8.9316C12.7095 8.47647 12.12 8.17979 11.4833 8.08537ZM8.74041 6.61481C9.67391 6.13044 10.7364 5.95274 11.7767 6.10701C12.8378 6.26436 13.8202 6.75884 14.5788 7.51739C15.3374 8.27595 15.8318 9.25836 15.9892 10.3195C16.1434 11.3598 15.9658 12.4223 15.4814 13.3558C14.997 14.2893 14.2306 15.0463 13.2912 15.5191C12.3518 15.9919 11.2872 16.1565 10.2489 15.9894C9.21059 15.8223 8.25138 15.3321 7.50773 14.5885C6.76408 13.8448 6.27385 12.8856 6.10677 11.8473C5.93969 10.8089 6.10427 9.74438 6.57709 8.80498C7.04992 7.86558 7.80692 7.09918 8.74041 6.61481Z"/></svg>