<svg class="svgicon svgicon-outline-youtube" xmlns="http://www.w3.org/2000/svg" width="24" height="18" viewBox="0 0 24 18"><path fill-rule="evenodd" clip-rule="evenodd" d="M11.9995 0.0961914C11.9995 0.0961914 11.9996 0.0961914 11.9996 1.09619L11.9996 2.09619L11.9241 2.0963C11.8741 2.09641 11.8002 2.09663 11.7053 2.09708C11.5155 2.09797 11.2421 2.09975 10.9084 2.10332C10.2407 2.11047 9.33357 2.12474 8.3743 2.15325C7.41342 2.1818 6.4082 2.2244 5.54172 2.2876C4.65361 2.35238 3.99372 2.4338 3.66495 2.52038C3.36625 2.60619 3.09517 2.76872 2.87873 2.99186C2.6676 3.20952 2.51569 3.47738 2.4372 3.76994C2.13766 5.44356 1.99118 7.14101 1.99958 8.84125L1.99964 8.85247C1.98892 10.5597 2.1343 12.2643 2.43407 13.9449C2.5207 14.2226 2.67413 14.475 2.88117 14.6799C3.09808 14.8946 3.36653 15.0499 3.66073 15.1309C3.98806 15.2179 4.64979 15.2997 5.54172 15.3648C6.4082 15.428 7.41342 15.4706 8.3743 15.4991C9.33357 15.5276 10.2407 15.5419 10.9084 15.5491C11.2421 15.5526 11.5155 15.5544 11.7053 15.5553C11.8002 15.5557 11.8741 15.556 11.9241 15.5561H12.0751C12.1251 15.556 12.199 15.5557 12.2939 15.5553C12.4836 15.5544 12.7571 15.5526 13.0908 15.5491C13.7585 15.5419 14.6656 15.5276 15.6249 15.4991C16.5858 15.4706 17.591 15.428 18.4575 15.3648C19.3456 15.3 20.0055 15.2186 20.3342 15.132C20.6329 15.0462 20.904 14.8837 21.1205 14.6605C21.3316 14.4429 21.4835 14.175 21.562 13.8825C21.8592 12.2215 22.0057 10.5371 21.9996 8.84978L21.9996 8.83991C22.0103 7.12677 21.8639 5.41628 21.562 3.72996C21.4835 3.43739 21.3316 3.16952 21.1205 2.95186C20.9065 2.73128 20.6391 2.56992 20.3445 2.48336C20.0046 2.40339 19.3422 2.32967 18.4638 2.27117C17.5955 2.21335 16.5889 2.17441 15.6275 2.14832C14.6675 2.12228 13.7598 2.10923 13.0917 2.10271C12.7578 2.09945 12.4842 2.09782 12.2943 2.097L12.0753 2.09629L11.9996 2.09619L11.9996 1.09619C11.9996 0.0961914 11.9995 0.0961914 11.9995 0.0961914L12.0793 0.096296C12.1308 0.0964 12.2063 0.0966073 12.3029 0.0970209C12.4959 0.097848 12.7732 0.0995002 13.1112 0.102802C13.7869 0.109401 14.7067 0.122606 15.6817 0.149059C16.6553 0.175473 17.6912 0.215285 18.5967 0.275589C19.4763 0.33417 20.3111 0.416359 20.8368 0.544735C20.8485 0.547598 20.8602 0.550674 20.8718 0.55396C21.5119 0.735053 22.0929 1.08186 22.556 1.55934C23.0192 2.03682 23.3482 2.62808 23.5097 3.27338C23.5151 3.29499 23.5198 3.31676 23.5237 3.33868C23.8516 5.1564 24.0109 7.00051 23.9996 8.84752C24.0058 10.6669 23.8466 12.4831 23.5237 14.2736C23.5198 14.2956 23.5151 14.3174 23.5097 14.339C23.3482 14.9843 23.0192 15.5756 22.556 16.053C22.0929 16.5305 21.5119 16.8773 20.8718 17.0584L20.858 17.0622C20.3243 17.205 19.4823 17.2953 18.603 17.3595C17.6957 17.4257 16.6584 17.4693 15.6843 17.4982C14.7086 17.5272 13.7881 17.5417 13.1122 17.5489C12.774 17.5526 12.4965 17.5544 12.3033 17.5553C12.2067 17.5557 12.1311 17.556 12.0795 17.5561L12 17.5562L11.9197 17.5561C11.8681 17.556 11.7925 17.5557 11.6959 17.5553C11.5027 17.5544 11.2252 17.5526 10.887 17.5489C10.211 17.5417 9.29062 17.5272 8.31489 17.4982C7.34077 17.4693 6.30349 17.4257 5.39622 17.3595C4.51692 17.2953 3.67488 17.205 3.14123 17.0622L3.13567 17.0608C2.5086 16.8892 1.93639 16.5588 1.47431 16.1014C1.01222 15.6441 0.675903 15.0753 0.497836 14.4501C0.488797 14.4184 0.481335 14.3862 0.475477 14.3537C0.147638 12.5362 -0.0116703 10.6923 -0.00041991 8.84552C-0.00913417 7.01255 0.150161 5.18263 0.475469 3.37872C0.479424 3.35679 0.48411 3.335 0.48952 3.31338C0.651039 2.66808 0.97999 2.07682 1.44315 1.59934C1.90631 1.12186 2.48727 0.775053 3.12736 0.59396L3.14123 0.590143C3.67488 0.447423 4.51692 0.357038 5.39622 0.292903C6.30349 0.226728 7.34077 0.18308 8.31489 0.154133C9.29062 0.125138 10.211 0.110668 10.887 0.103436C11.2252 0.0998182 11.5027 0.0980074 11.6959 0.0971009C11.7925 0.0966475 11.8681 0.0964202 11.9197 0.0963061L11.9995 0.0961914ZM9.24678 4.7118C9.55459 4.53274 9.93439 4.53089 10.2439 4.70693L15.9939 7.97693C16.3065 8.15469 16.4996 8.4866 16.4996 8.84619C16.4996 9.20579 16.3065 9.53769 15.9939 9.71546L10.2439 12.9855C9.93439 13.1615 9.55459 13.1596 9.24678 12.9806C8.93896 12.8015 8.74959 12.4723 8.74959 12.1162V5.57619C8.74959 5.22009 8.93896 4.89085 9.24678 4.7118ZM10.7496 7.29528V10.3971L13.4767 8.84619L10.7496 7.29528Z"/></svg>