<svg width="52" height="52" viewBox="0 0 52 52" fill="none" xmlns="http://www.w3.org/2000/svg">
<path d="M17.1875 50.1016V38.2422L8.33594 44.7734C10.8281 47.0938 13.8359 48.8984 17.1875 50.1016ZM34.375 50.1016C37.7266 48.8984 40.7344 47.0938 43.2266 44.7734L34.375 38.1562V50.1016ZM1.46094 34.375C1.71875 35.2344 2.0625 36.0078 2.49219 36.8672L5.84375 34.375H1.46094ZM45.7188 34.375L49.0703 36.8672C49.4141 36.0938 49.7578 35.2344 50.1016 34.375H45.7188Z" fill="#2A5F9E"/>
<path d="M0.515625 30.9375C0.773438 32.1406 1.11719 33.2578 1.46094 34.375H5.84375L2.49219 36.8672C3.17969 38.3281 3.95312 39.6172 4.89844 40.9062L13.75 34.375H17.1875V36.0938L7.13281 43.4844L8.33594 44.6875L17.1875 38.2422V50.1016C18.3047 50.5312 19.4219 50.7891 20.625 51.0469V30.9375H0.515625ZM51.0469 30.9375H30.9375V51.0469C32.1406 50.7891 33.2578 50.4453 34.375 50.1016V38.2422L43.2266 44.6875C44.4297 43.5703 45.4609 42.3672 46.4922 41.0781L37.2969 34.375H43.1406L48.3828 38.2422C48.6406 37.8125 48.8984 37.2969 49.0703 36.8672L45.7188 34.375H50.1016C50.4453 33.2578 50.7891 32.1406 51.0469 30.9375Z" fill="white"/>
<path d="M4.89844 40.9062C5.58594 41.8516 6.27344 42.7109 7.04688 43.5703L17.1875 36.1797V34.4609H13.75L4.89844 40.9062ZM37.3828 34.375L46.5781 41.0781C46.9219 40.6484 47.1797 40.2188 47.5234 39.7891C47.6094 39.7031 47.6094 39.6172 47.6953 39.6172C47.9531 39.1875 48.2969 38.6719 48.5547 38.2422L43.1406 34.375H37.3828Z" fill="#ED4C5C"/>
<path d="M34.375 1.46094V13.3203L43.2266 6.78906C40.7344 4.46875 37.7266 2.66406 34.375 1.46094ZM17.1875 1.46094C13.8359 2.66406 10.8281 4.46875 8.33594 6.78906L17.1875 13.4063V1.46094ZM50.1016 17.1875C49.8438 16.3281 49.5 15.5547 49.0703 14.6953L45.7188 17.1875H50.1016ZM5.84375 17.1875L2.49219 14.6953C2.14844 15.5547 1.80469 16.3281 1.46094 17.1875H5.84375Z" fill="#2A5F9E"/>
<path d="M50.9609 20.625C50.7031 19.4219 50.3594 18.3047 50.0156 17.1875H45.6328L48.9844 14.6953C48.2969 13.2344 47.5234 11.9453 46.5781 10.6562L37.8125 17.1875H34.375V15.4688L44.4297 8.07812L43.2266 6.875L34.375 13.3203V1.46094C33.2578 1.03125 32.1406 0.773438 30.9375 0.515625V20.625H50.9609ZM0.515625 20.625H20.625V0.515625C19.4219 0.773438 18.3047 1.11719 17.1875 1.46094V13.3203L8.33594 6.875C7.13281 7.99219 6.10156 9.19531 5.07031 10.4844L14.2656 17.1875H8.42188L3.17969 13.3203C2.92188 13.75 2.66406 14.2656 2.49219 14.6953L5.84375 17.1875H1.46094C1.11719 18.3047 0.773438 19.4219 0.515625 20.625Z" fill="white"/>
<path d="M46.6641 10.6562C45.9766 9.71094 45.2891 8.85156 44.5156 7.99219L34.375 15.3828V17.1016H37.8125L46.6641 10.6562ZM14.1797 17.1875L5.07031 10.4844C4.72656 10.9141 4.46875 11.3438 4.125 11.7734C4.03906 11.8594 4.03906 11.9453 3.95312 11.9453C3.69531 12.375 3.35156 12.8906 3.09375 13.3203L8.33594 17.1875H14.1797Z" fill="#ED4C5C"/>
<path d="M51.0469 20.625H30.9375V0.515625C29.3047 0.171875 27.5859 0 25.7812 0C23.0742 0 22.2578 0.171875 20.625 0.515625V20.625H0.515625C0.171875 22.2578 0 23.9766 0 25.7812C0 28.4883 0.171875 29.3047 0.515625 30.9375H20.625V51.0469C22.2578 51.3906 23.9766 51.5625 25.7812 51.5625C28.4883 51.5625 29.3047 51.3906 30.9375 51.0469V30.9375H51.0469C51.3906 29.3047 51.5625 27.5859 51.5625 25.7812C51.5625 23.0742 51.3906 22.2578 51.0469 20.625Z" fill="#ED4C5C"/>
</svg>
