<svg width="52" height="52" viewBox="0 0 52 52" fill="none" xmlns="http://www.w3.org/2000/svg">
<path d="M25.7813 0C14.5234 0 4.98438 7.21875 1.46094 17.1875H50.1016C46.5781 7.21875 37.0391 0 25.7813 0Z" fill="#3E4347"/>
<path d="M25.7813 51.5625C37.0391 51.5625 46.5781 44.4297 50.1016 34.375H1.46094C4.98438 44.4297 14.5234 51.5625 25.7813 51.5625Z" fill="#FFE62E"/>
<path d="M1.46094 17.1875C0.515625 19.8516 0 22.7734 0 25.7812C0 28.7891 0.515625 31.7109 1.46094 34.375H50.1016C51.0469 31.7109 51.5625 28.7891 51.5625 25.7812C51.5625 22.7734 51.0469 19.8516 50.1016 17.1875H1.46094Z" fill="#ED4C5C"/>
</svg>
