<svg class="svgicon svgicon-location" xmlns="http://www.w3.org/2000/svg" width="24" height="24" viewBox="0 0 24 24"><path d="M19.7143 9.42857C19.7143 7.38262 18.9015 5.42046 17.4548 3.97375C16.0081 2.52704 14.0459 1.71429 12 1.71429C9.95403 1.71429 7.99187 2.52704 6.54516 3.97375C5.09845 5.42046 4.2857 7.38262 4.2857 9.42857C4.2857 12.5931 6.8177 16.7177 12 21.6583C17.1823 16.7177 19.7143 12.5931 19.7143 9.42857ZM12 24C5.7137 18.2863 2.57141 13.428 2.57141 9.42857C2.57141 6.92796 3.56478 4.52976 5.33298 2.76156C7.10118 0.993365 9.49937 0 12 0C14.5006 0 16.8988 0.993365 18.667 2.76156C20.4352 4.52976 21.4286 6.92796 21.4286 9.42857C21.4286 13.428 18.2863 18.2863 12 24Z"/><path d="M12 10.2857C12.4547 10.2857 12.8907 10.1051 13.2122 9.78361C13.5337 9.46212 13.7143 9.02608 13.7143 8.57143C13.7143 8.11677 13.5337 7.68074 13.2122 7.35925C12.8907 7.03775 12.4547 6.85714 12 6.85714C11.5453 6.85714 11.1093 7.03775 10.7878 7.35925C10.4663 7.68074 10.2857 8.11677 10.2857 8.57143C10.2857 9.02608 10.4663 9.46212 10.7878 9.78361C11.1093 10.1051 11.5453 10.2857 12 10.2857ZM12 12C11.0907 12 10.2186 11.6388 9.57563 10.9958C8.93265 10.3528 8.57143 9.48074 8.57143 8.57143C8.57143 7.66211 8.93265 6.79004 9.57563 6.14706C10.2186 5.50408 11.0907 5.14286 12 5.14286C12.9093 5.14286 13.7814 5.50408 14.4244 6.14706C15.0673 6.79004 15.4286 7.66211 15.4286 8.57143C15.4286 9.48074 15.0673 10.3528 14.4244 10.9958C13.7814 11.6388 12.9093 12 12 12ZM21.2571 17.1429L24 24H16.2857V22.2857H7.71429V24H0L2.74286 17.1429H21.2571ZM19.4109 17.1429H4.58914L2.532 22.2857H21.468L19.4109 17.1429Z"/></svg>