<svg class="svgicon svgicon-mail" xmlns="http://www.w3.org/2000/svg" width="20" height="16" viewBox="0 0 20 16"><path d="M16.2 0C16.9956 0 17.7587 0.316071 18.3213 0.87868C18.8839 1.44129 19.2 2.20435 19.2 3V12.6C19.2 13.3956 18.8839 14.1587 18.3213 14.7213C17.7587 15.2839 16.9956 15.6 16.2 15.6H3C2.20435 15.6 1.44129 15.2839 0.87868 14.7213C0.316071 14.1587 0 13.3956 0 12.6V3C0 2.20435 0.316071 1.44129 0.87868 0.87868C1.44129 0.316071 2.20435 0 3 0H16.2ZM18 4.7532L9.9048 9.5172C9.82827 9.56213 9.74272 9.58953 9.65432 9.59742C9.56592 9.6053 9.47688 9.59348 9.3936 9.5628L9.2952 9.5172L1.2 4.7556V12.6C1.2 13.0774 1.38964 13.5352 1.72721 13.8728C2.06477 14.2104 2.52261 14.4 3 14.4H16.2C16.6774 14.4 17.1352 14.2104 17.4728 13.8728C17.8104 13.5352 18 13.0774 18 12.6V4.7532ZM16.2 1.2H3C2.52261 1.2 2.06477 1.38964 1.72721 1.72721C1.38964 2.06477 1.2 2.52261 1.2 3V3.3624L9.6 8.304L18 3.36V3C18 2.52261 17.8104 2.06477 17.4728 1.72721C17.1352 1.38964 16.6774 1.2 16.2 1.2Z"/></svg>