<svg class="svgicon svgicon-maps" xmlns="http://www.w3.org/2000/svg" width="13" height="16" viewBox="0 0 13 16"><path d="M6.5 3.49053C5.93195 3.49053 5.37666 3.65259 4.90435 3.95623C4.43204 4.25987 4.06391 4.69145 3.84653 5.19638C3.62915 5.70131 3.57227 6.25693 3.68309 6.79296C3.79391 7.329 4.06745 7.82137 4.46912 8.20783C4.87079 8.59429 5.38255 8.85747 5.93968 8.9641C6.49681 9.07072 7.0743 9.016 7.5991 8.80685C8.12391 8.5977 8.57247 8.24352 8.88806 7.78909C9.20365 7.33466 9.37209 6.8004 9.37209 6.25386C9.37209 5.52098 9.0695 4.81812 8.53088 4.29989C7.99225 3.78166 7.26173 3.49053 6.5 3.49053ZM6.5 8.14456C6.11134 8.14456 5.7314 8.03368 5.40824 7.82592C5.08508 7.61817 4.8332 7.32288 4.68447 6.9774C4.53573 6.63192 4.49682 6.25176 4.57264 5.885C4.64847 5.51824 4.83563 5.18135 5.11045 4.91693C5.38528 4.65251 5.73543 4.47244 6.11662 4.39949C6.49782 4.32654 6.89294 4.36398 7.25202 4.50708C7.6111 4.65018 7.918 4.89252 8.13393 5.20344C8.34986 5.51437 8.46512 5.87992 8.46512 6.25386C8.46512 6.75531 8.25808 7.23621 7.88955 7.59079C7.52102 7.94537 7.02118 8.14456 6.5 8.14456ZM6.5 0C4.77671 0.00192459 3.12457 0.66143 1.90602 1.83384C0.687462 3.00625 0.00200034 4.59583 0 6.25386C0 8.50162 1.08384 10.889 3.13436 13.1578C4.05986 14.1869 5.10148 15.1137 6.24 15.9212C6.31621 15.9725 6.40698 16 6.5 16C6.59302 16 6.68379 15.9725 6.76 15.9212C7.89852 15.1137 8.94014 14.1869 9.86564 13.1578C11.9162 10.889 13 8.5038 13 6.25386C12.998 4.59583 12.3125 3.00625 11.094 1.83384C9.87543 0.66143 8.22329 0.00192459 6.5 0ZM6.5 15.0173C5.36628 14.1752 0.906977 10.5894 0.906977 6.25386C0.906977 4.82667 1.49624 3.45793 2.54514 2.44876C3.59403 1.43958 5.01664 0.872632 6.5 0.872632C7.98336 0.872632 9.40597 1.43958 10.4549 2.44876C11.5038 3.45793 12.093 4.82667 12.093 6.25386C12.093 10.5894 7.63372 14.1752 6.5 15.0173Z"/></svg>