<svg class="svgicon svgicon-menu" xmlns="http://www.w3.org/2000/svg" width="21" height="17" viewBox="0 0 21 17"><path d="M19.8333 14.2143C20.4777 14.2143 21 14.726 21 15.3571C21 15.9883 20.4777 16.5 19.8333 16.5H8.16667C7.52233 16.5 7 15.9883 7 15.3571C7 14.726 7.52233 14.2143 8.16667 14.2143H19.8333ZM19.8333 7.35714C20.4777 7.35714 21 7.86882 21 8.5C21 9.13118 20.4777 9.64286 19.8333 9.64286H4.66667C4.02233 9.64286 3.5 9.13118 3.5 8.5C3.5 7.86882 4.02233 7.35714 4.66667 7.35714H19.8333ZM19.8333 0.5C20.4777 0.5 21 1.01167 21 1.64286C21 2.27404 20.4777 2.78571 19.8333 2.78571H1.16667C0.522334 2.78571 0 2.27404 0 1.64286C0 1.01167 0.522334 0.5 1.16667 0.5H19.8333Z"/></svg>