<svg class="svgicon svgicon-more" xmlns="http://www.w3.org/2000/svg" width="29" height="13" viewBox="0 0 29 13"><path d="M21.6139 0.363333C22.0822 -0.11624 22.8471 -0.121663 23.3226 0.350637L28.6397 5.63195C28.8702 5.861 29 6.17365 29 6.5C29 6.82635 28.8702 7.139 28.6397 7.36805L23.3226 12.6494C22.8471 13.1217 22.0822 13.1162 21.6139 12.6367C21.1457 12.1571 21.1519 11.3856 21.6273 10.9133L24.8432 7.71876H1.20833C0.540989 7.71876 0 7.17311 0 6.5C0 5.8269 0.540989 5.28124 1.20833 5.28124H24.8432L21.6273 2.08674C21.1519 1.61443 21.1457 0.842886 21.6139 0.363333Z"/></svg>