<svg class="svgicon svgicon-pdf" xmlns="http://www.w3.org/2000/svg" width="14" height="14" viewBox="0 0 14 14"><path fill-rule="evenodd" clip-rule="evenodd" d="M6 0.000227406C6.06562 -0.00186894 6.13104 0.0105561 6.19141 0.0363602C6.25178 0.0622358 6.30582 0.101659 6.34961 0.150618L9.84961 3.65062C9.89827 3.69453 9.937 3.74861 9.96289 3.80882C9.98873 3.8691 10.0017 3.93467 10 4.00023V6.00023H9V5.00023H6C5.73515 4.99944 5.48129 4.89446 5.29395 4.70726C5.10658 4.51989 5.00079 4.2652 5 4.00023V1.00023H1V13.0002H9V14.0002H1C0.734906 14.0002 0.48048 13.8956 0.292969 13.7082C0.105432 13.5207 0 13.2654 0 13.0002V1.00023C0.000911649 0.73542 0.106688 0.48143 0.293945 0.294173C0.481288 0.106951 0.735135 0.00101845 1 0.000227406H6ZM6 4.00023H8.7998L6 1.20042V4.00023Z"/><path fill-rule="evenodd" clip-rule="evenodd" d="M4.5 7.00023C4.76516 7.00023 5.01951 7.10573 5.20703 7.2932C5.39451 7.48068 5.49994 7.73509 5.5 8.00023V9.50023C5.4996 9.76527 5.39441 10.0198 5.20703 10.2073C5.01958 10.3947 4.76509 10.4998 4.5 10.5002H3V12.0002H2V7.00023H4.5ZM3 8.00023V9.50023H4.50098L4.5 8.00023H3Z"/><path fill-rule="evenodd" clip-rule="evenodd" d="M8.5 7.00023C8.8977 7.00062 9.27933 7.15944 9.56055 7.44066C9.84148 7.72179 9.99954 8.10278 10 8.50023V10.5002C9.9996 10.8979 9.84169 11.2796 9.56055 11.5608C9.27933 11.842 8.8977 11.9998 8.5 12.0002H6.5V7.00023H8.5ZM7.5 11.0002H8.5C8.63261 11.0002 8.75975 10.9475 8.85352 10.8537C8.94721 10.76 9 10.6328 9 10.5002V8.50023C8.99994 8.3677 8.94723 8.24043 8.85352 8.14671C8.75976 8.05301 8.63255 8.00023 8.5 8.00023H7.5V11.0002Z"/><path d="M14 7.00023V8.00023H12V9.00023H13.5V10.0002H12V12.0002H11V7.00023H14Z"/></svg>