<svg class="svgicon svgicon-share-link" xmlns="http://www.w3.org/2000/svg" width="24" height="24" viewBox="0 0 24 24"><path d="M21.3333 0H2.66667C1.95942 0 1.28115 0.280951 0.781048 0.781048C0.280951 1.28115 0 1.95942 0 2.66667V21.3333C0 22.0406 0.280951 22.7189 0.781048 23.219C1.28115 23.719 1.95942 24 2.66667 24H21.3333C22.0406 24 22.7189 23.719 23.219 23.219C23.719 22.7189 24 22.0406 24 21.3333V2.66667C24 1.95942 23.719 1.28115 23.219 0.781048C22.7189 0.280951 22.0406 0 21.3333 0ZM14.5867 15.7467L11.64 18.6667C10.7733 19.56 9.62667 20 8.48 20C7.33333 20 6.18667 19.56 5.33333 18.6667C3.56 16.9467 3.56 14.1067 5.33333 12.3467L7.13333 10.5333L7.12 11.3333C7.10667 12 7.21333 12.6667 7.42667 13.2533L7.49333 13.4533L6.96 14C6.75794 14.1982 6.59744 14.4348 6.48787 14.6957C6.3783 14.9567 6.32186 15.2369 6.32186 15.52C6.32186 15.8031 6.3783 16.0833 6.48787 16.3443C6.59744 16.6052 6.75794 16.8418 6.96 17.04C7.77333 17.8667 9.18667 17.8667 10 17.04L12.9333 14.12C13.3333 13.7067 13.5733 13.16 13.5733 12.5867C13.5733 12 13.3333 11.48 12.9333 11.0667C12.8237 10.9587 12.7366 10.83 12.6772 10.6881C12.6177 10.5462 12.5871 10.3939 12.5871 10.24C12.5871 10.0861 12.6177 9.9338 12.6772 9.79188C12.7366 9.64995 12.8237 9.52128 12.9333 9.41333C13.3733 8.97333 14.1467 8.98667 14.5867 9.41333C15.4267 10.2667 15.8933 11.3867 15.8933 12.5867C15.8933 13.7867 15.4267 14.9067 14.5867 15.7467ZM18.6667 11.6533L16.88 13.4667V12.6667C16.8933 12 16.7867 11.3333 16.5733 10.7467L16.5067 10.56L17.04 10C17.2421 9.80177 17.4026 9.56525 17.5121 9.30426C17.6217 9.04327 17.6781 8.76306 17.6781 8.48C17.6781 8.19694 17.6217 7.91673 17.5121 7.65574C17.4026 7.39475 17.2421 7.15823 17.04 6.96C16.2267 6.13333 14.8 6.14667 14 6.96L11.0667 9.89333C10.6667 10.2933 10.4267 10.84 10.4267 11.4133C10.4267 12 10.6667 12.52 11.0667 12.9333C11.2933 13.1467 11.4133 13.44 11.4133 13.76C11.4133 14.08 11.2933 14.3733 11.0667 14.5867C10.9581 14.6946 10.829 14.7797 10.687 14.8369C10.5451 14.8942 10.3931 14.9224 10.24 14.92C9.94667 14.92 9.64 14.8133 9.41333 14.5867C8.57389 13.7466 8.10234 12.6076 8.10234 11.42C8.10234 10.2324 8.57389 9.0934 9.41333 8.25333L12.36 5.33333C12.7709 4.91365 13.2615 4.58023 13.803 4.3526C14.3445 4.12497 14.926 4.00772 15.5133 4.00772C16.1007 4.00772 16.6822 4.12497 17.2237 4.3526C17.7651 4.58023 18.2557 4.91365 18.6667 5.33333C19.5333 6.16 20 7.28 20 8.48C20 9.68 19.5333 10.8 18.6667 11.6533Z"/></svg>