<svg class="svgicon svgicon-share-telegram" xmlns="http://www.w3.org/2000/svg" width="24" height="24" viewBox="0 0 24 24"><path fill-rule="evenodd" clip-rule="evenodd" d="M3 0C1.34315 0 0 1.34315 0 3V21C0 22.6569 1.34315 24 3 24H21C22.6569 24 24 22.6569 24 21V3C24 1.34315 22.6569 0 21 0H3ZM18.2343 6.01028C18.0331 5.98303 17.8283 6.01019 17.6412 6.08894L4.69421 11.5403C3.7917 11.9204 3.74552 13.2257 4.69497 13.6194C5.39759 13.9109 6.25845 14.1502 7.1867 14.3046C7.69549 14.3894 8.12101 14.3046 8.9372 13.8079C9.86242 13.2446 12.6608 11.2435 14.4037 9.92762C15.1056 9.39762 15.3766 9.73 14.7823 10.3062C14.5762 10.5057 14.3491 10.7238 14.1102 10.9533C12.5928 12.4106 10.5954 14.3288 10.4515 14.8959C10.2576 15.6637 11.8348 16.7426 12.3496 17.0795C13.3793 17.7526 14.5241 18.3977 15.2949 18.8164C16.2163 19.3169 17.3187 18.7407 17.4853 17.736L19.2024 7.32004C19.2354 7.11973 19.214 6.91425 19.1406 6.72499C19.0672 6.53573 18.9444 6.36961 18.785 6.24391C18.6256 6.11821 18.4354 6.03754 18.2343 6.01028Z"/></svg>